<svg class="splat" xmlns="http://www.w3.org/2000/svg" viewBox="0 0 1904.4755 1803.9135">
	<path
		d="M1836.9477,1211.4323c-45.2671-19.1621-92.4781-34.1586-138.5784-51.3767-43.0454-16.385-77.2041-41.3792-81.3698-91.9229-4.1656-49.4326,36.3802-59.9858,68.3173-79.1479,54.7092-32.77,57.4863-63.0406,13.3301-110.8072-9.9976-10.553-21.3838-19.9952-32.4922-29.1598-34.7141-28.8821-52.7654-57.2087-22.7725-104.1421,11.1084-17.4959,7.2205-58.875-6.6652-74.1492-19.1622-21.1061-55.8202-35.8248-33.881-66.6509,14.9966-21.1061,50.5437-30.5483,78.8704-38.602,30.5483-8.3314,68.3171-.5554,93.0336-15.8296,21.3837-13.0525,40.546-49.1551,39.7129-74.4269-1.111-36.3803-36.9358-41.1014-67.4841-31.6592-46.9335,14.7188-92.756,33.3255-139.4115,49.4328-19.9954,6.9428-40.8237,11.6639-74.7046,21.1061,13.0525-29.9929,21.6615-44.7117,25.8271-60.5413,6.9429-26.6604,11.1086-53.8762,16.385-80.8143-26.3826-2.4994-53.043-3.888-79.1479-8.0536-20.8284-3.3325-55.8201-5.832-58.8749-16.385-6.1096-20.5507-2.7771-54.1539,11.1085-68.8726,29.4375-31.1038,69.7058-51.6545,102.4758-79.9811,36.9355-32.4924,63.8738-77.204,39.4351-123.3043-16.385-31.3815-52.7654-62.4853-86.3685-72.2052-52.21-14.9965-98.0326,14.1633-119.694,64.707-16.9406,39.4351-27.4937,82.7582-35.2695,125.2482-8.3313,44.9894-29.1598,74.4269-86.6462,87.7571-11.1085-79.4257-71.9275-72.2052-131.9133-72.4829-67.4841-.2777-71.6498-8.6091-52.21-78.5926,2.2218-8.3314,6.6652-16.1073,8.0537-24.7164,7.2206-45.5449-21.3838-93.0336-62.7629-101.365-46.9333-9.4422-79.4257,13.6079-96.0884,55.8201-9.4423,23.8833-14.7188,50.5436-15.5519,76.3709-1.6663,46.1002-25.5495,62.4852-68.0396,74.7046-79.4257,22.4947-154.408,9.9976-231.612-7.7759-105.8084-24.1609-149.1315,13.6079-142.4664,119.1385,1.1108,17.2181,2.7771,34.7141,2.7771,52.2099.2778,61.9299-22.7724,84.4246-84.1468,80.2589-56.9311-3.6102-91.6451-38.602-125.8037-82.2028-36.658-46.6557-79.9811-90.812-128.3031-125.2483-40.2682-28.6043-85.2576-8.8868-115.806,28.049-32.7701,39.7129-17.7736,79.4258,16.9404,106.9193,44.9894,35.5472,94.1445,66.3733,143.8549,95.2553,42.49,24.7164,91.6451,38.8797,131.3579,66.6509,19.9953,13.8856,38.6021,50.8214,34.1586,72.4829-4.4434,20.5507-36.9357,41.9346-61.6521,50.2659-32.2147,10.8307-68.595,9.4422-103.309,13.6079-48.322,6.1097-73.0383,35.5472-72.7606,82.2028.5554,57.7642,35.8249,88.8679,88.8679,103.5867,34.7141,9.7199,69.1503,20.8284,103.5867,31.3815,1.6663,9.4423,3.3325,18.6068,4.7213,28.6041-22.7724,24.7163-46.6556,48.5996-68.0395,74.7046-38.8797,46.9333-29.4375,84.7021,26.3827,109.6963,13.0525,5.832,27.4935,11.1086,41.6568,11.9417,54.9871,2.7771,82.7583,26.105,87.4794,85.5354,1.944,24.9941,27.7712,58.0419,51.6544,69.9834,91.9228,45.8226,97.4771,53.8762,46.1003,138.3008-16.6628,27.2158-39.7129,49.9883-58.0419,76.0933-41.6569,59.1527-86.6463,116.6392-122.1934,179.6798-25.8273,46.1002-5.2766,101.6427,33.3254,122.1935,39.7128,21.3838,88.8679,4.7209,113.0289-50.266,26.6603-60.5413,42.49-125.8036,62.2075-189.3998,11.1085-35.825,16.385-74.4269,32.4923-107.7524,25.5496-52.4875,56.931-50.8213,96.3661-5.8318,14.1633,16.1073,39.1574,25.5496,60.819,31.3815,24.1609,6.3873,50.5436,5.8319,75.8154,8.3313-10.553,27.7712-19.4399,56.3756-32.4924,83.036-16.1074,33.0479-43.3231,62.4854-51.9322,96.9216-14.9965,60.2635,23.8832,110.2517,77.204,111.3625,47.7665.8333,73.0383-32.2146,73.316-96.0884,0-8.609-.5555-17.4958-.8332-26.105-2.2217-48.5996,2.4995-92.7559,55.8202-116.0837,53.043-23.3278,91.0896-12.4971,129.4139,32.7701,42.49,49.7106,78.8702,45.5448,124.415-1.944,13.8856-14.7188,25.5496-31.9368,39.7129-46.3779,40.8237-41.9346,74.1492-37.2134,101.365,14.7188,10.8308,20.5508,15.2742,44.1562,26.6604,64.1516,21.3838,37.2134,51.6545,70.5388,98.0323,50.2659,46.6556-20.2729,41.6569-67.4841,29.7152-106.6415-8.8867-29.7152-30.5483-55.5425-44.9893-84.1469-34.7141-68.595-21.9392-96.9214,52.7654-103.5867,63.5961-5.5542,92.478-40.2683,103.0311-98.3101,3.6102-18.6068,9.7201-36.6581,15.5519-58.5974,74.9824,41.1014,143.0217,79.4258,212.1722,116.0837,34.9918,18.3291,73.316,48.5997,104.4198-4.9988,21.1062-36.3804.8331-70.5389-59.4304-96.3662ZM982.6382,1246.9218c-60.0026,0-116.4759-30.5896-176.4795-30.5896-65.8864,0-77.696,83.5327-122.3607,83.5327-23.1646,0-21.1776-28.2361-21.1776-28.2361,0-241.1902,100.0063-470.6148,100.0063-711.8049,0-62.3571-98.8295-3.5303-98.8295-57.6511,0-84.7105,251.7789-122.3597,316.4895-122.3597,29.412,0,64.7087,1.1768,64.7087,40.0027,0,87.063-35.2968,170.5977-35.2968,257.6617,0,4.706,3.5312,12.9413,4.707,17.6473,61.1793-41.1785,122.3607-81.1802,198.8348-81.1802,122.3607,0,174.1281,87.063,174.1281,200.0107,0,243.5436-151.7747,432.9664-404.7303,432.9664Z" />
	<path
		d="M1050.878,795.1313c-31.7655,0-61.1793,17.6483-68.2399,50.5905l-37.6482,177.6573c-4.7061,22.3544-11.7656,45.8855-11.7656,69.4166,0,16.4706,10.5888,32.9432,28.2361,32.9432,101.183,0,149.421-178.834,149.421-258.8395,0-41.1785-14.119-71.7681-60.0035-71.7681Z" />
</svg>