<?xml version="1.0" encoding="UTF-8"?>
<svg class="seaplane" xmlns="http://www.w3.org/2000/svg" viewBox="0 0 1386 224">
	<polygon class="seaplane__windows"
		points="201.8777 80.2999 145.5965 79.9633 113.1492 77.6638 98.6402 65.2097 98.6402 57.5221 122.646 46.8294 129.2409 44.2973 154.0381 49.5915 204.6875 52.5034 237.6624 54.3564 269.3184 59.1213 278.2875 67.9609 275.9133 81.2044 266.4166 85.0899 201.8777 80.2999" />
	<g class="seaplane__plane">
		<path
			d="M365.8297,198.8212c4.6214-4.4315,3.3612-9.946.0511-14.6579-2.8958-4.1221-6.5041-7.7013-10.821-8.5825-4.1796-.8532-10.8861.7558-12.8777,4.3879,1.2037,7.0659,2.4577,13.8189.5467,21.105-1.9155,7.3032,14.5194,5.9765,23.1009-2.2525Z" />
		<path
			d="M405.7891,90.0995c-.0663,1.6935,2.024,4.4657,4.4769,4.5466l34.7124,1.1444,35.3934.2621c3.2856.0243,4.7838-3.067,4.1453-4.9986-.5271-1.5949-2.1059-3.2667-4.5188-3.3484l-68.8442-2.3322c-2.916-.0988-5.2737,2.3976-5.365,4.7262Z" />
		<path
			d="M133.314,41.8756c-10.6967-4.6671-32.4498,14.3037-39.7231,14.7528l-13.5351.8358c-6.9425.4287-6.5005,36.2393-6.332,42.1353.0625,2.1887,1.7726,3.7512,3.9613,3.8914l39.4361,2.5255c.0997,1.3323.338,2.466.9132,3.4724l-43.5858-2.1521c-.7359,7.2185-.307,14.5656,2.8039,21.5156l37.1754,3.0369c.5666,4.5568-.3044,8.3744-.4807,12.8489-3.6061-.4239.4787-7.6699-4.4077-9.6643-1.3033-.532-6.1725-.4968-5.8181,1.5006,2.2305,12.5689,4.7859,24.5043,7.8254,36.6945.8242,2.9687,6.956,1.4676,8.8505.0337l25.6132-19.3856,24.2665-18.9502c1.6307-1.2734,5.3368.0146,7.3766.3339l32.0673,40.9038c1.6997,1.4417,8.6922,2.2647,9.2754-.3262,3.0532-13.5654,3.0203-26.8727,4.9294-40.943,27.5014-1.014,54.3082-2.9351,82.1604-5.9805l110.1767-12.0469,15.1514,12.4199c9.4167,7.7191,22.6021,6.7038,30.7204-2.5625,3.4757-3.9672,6.1832-8.7842,7.0575-14.0357l-41.8308,3.0842,39.563-6.0022c1.9544.5798,3.7961-.3661,4.6836-1.133.8658-.748,1.2847-4.8605.1334-4.9132-21.8425-1.0008-43.4078-.8009-64.777-3.3458-5.5147-.6567-8.6695-7.0119-8.2433-11.018.5388-5.0635,3.9236-8.6937,9.1084-9.7888,6.6201-1.1506,13.2693-.9119,20.1625-.5936l45.5155,2.1021c-1.4438-19.3207-6.4351-46.2338-20.1986-59.2506-8.4639-7.2817-20.9373-8.9744-30.6813-3.1027-3.7573,2.2642-6.3628,6.2533-8.5983,9.8617l-13.3518,21.5522c-6.6077,10.6661-17.0142,16.2251-29.7703,16.223-17.8168-.003-34.8311-2.2162-52.6035-4.6316l-89.1005-12.1092-26.5406-2.2792-6.2342-21.3887c-.7699-2.6415-6.659-1.5495-8.4021-.58l4.8897,21.1924-33.9363-1.7238-7.7478-22.9062c9.6055-.492,20.5384,2.9294,30.5452.8821,6.5432-1.3387,10.5956-1.8564,17.1928.8401,2.6945,1.1014,27.7901,5.0455,30.8833-3.2274,2.727-7.2933-17.778-11.924-23.105-13.2902C188.4319,2.4856,170.0933-.6131,151.1141.1026c-19.0934.72-26.9303,12.3469-23.0729,17.0178,3.0499,3.6931,9.1054,2.7463,13.2735,4.177l8.4058,22.8272c-5.2047.395-10.8882.1586-16.4065-2.249ZM212.5911,166.8157l-24.5305-31.6097,27.917-.0453c-.5543,11.1783-1.5029,20.8029-3.3865,31.6551ZM251.4198,61.259c6.0864.9672,13.7875.043,19.3404,4.0621,3.8254,2.7687,1.5366,13.7602-2.6969,15.4864-2.1134.8617-20.2787,3.9533-20.411-3.3306l-.2198-12.0954c-.0358-1.971,1.4332-4.5283,3.9874-4.1224ZM203.6187,81.0244c1.9127.0974,3.6113.8489,7.0699-.3031-1.7476-7.9999-3.3624-15.307-6.3739-23.0835,8.2502-.3713,16.9183.2122,25.8877.8792,6.0062.4467,4.7204,10.6813,4.6039,17.9796-.1406,8.8059-16.3391,2.1325-25.5736,4.7632l6.8118,27.891,124.0592,1.522c-5.3435,2.7515-10.9002,1.8479-17.273,1.8246l-143.5299-.5236c-.0167-1.5986-1.0075-2.2079-1.4524-3.9163l33.9761.7796c-2.4851-9.4958-4.4003-18.1508-8.2059-27.8127ZM172.6096,59.5208c-.0002-1.8873,1.5592-3.5912,3.5415-3.562,6.5969.0973,12.8763-.0342,19.392.6465l6.3346,23.3226c-8.8965.1831-16.9921-.3687-25.5886-1.0881-5.118-.4283-3.6787-13.2041-3.6795-19.3191ZM104.8191,59.1708c7.7004-3.8857,15.9373-8.6655,23.8099-10.9856,2.1463-.0513,6.753,3.2028,6.9608,5.4288-2.4415,7.3934-7.8865,14.3209-12.6379,21.6675-4.2422.4914-27.2635-11.5033-18.1329-16.1107ZM120.5533,163.8449l2.8625-31.4055,34.6105,1.5938-37.473,29.8117ZM170.924,112.0188l-41.8931-1.8113c-1.1417-.0494-2.1553-.0497-2.4247-.5589-.4753-.8979.2997-1.7568-.3725-3.6828l41.7561,1.9214c1.6423.0756,2.1923.7275,2.9342,4.1316ZM152.721,57.3869c3.3235,6.2337,4.5927,12.8524,7.1311,20.1962-8.6072,1.1824-16.1747.5168-24.4213-.8764,2.3732-6.9238,6.3957-11.4714,9.4628-17.7418,1.0326-2.1109,6.5058-4.0568,7.8273-1.578Z" />
		<path
			d="M18.4923,77.6053c6.1379-1.7287,8.2562-61.2085,1.1214-61.6075-5.5266-.3091-5.3097,25.346-5.3908,30.4216-.0668,4.1779-1.1197,32.7037,4.2695,31.1859Z" />
		<path
			d="M40.3537,57.2551c-7.0479.6302-10.4987,5.4472-11.0162,12.1606-1.1824,15.338-1.1809,30.4814-.2237,45.8703.8933,14.3622,34.856,12.7791,44.8927,13.4974-.0527-3.7883-1.7369-6.2115-2.293-9.5381-2.4409-14.6012-4.4361-49.2367,4.4785-61.8288-12.2819-.8963-24.068-1.214-35.8383-.1614Z" />
		<path
			d="M16.6039,161.4072c7.9095.3311,5.3432-47.2344,4.182-55.7934-.2123-1.565-2.2563-3.0535-3.238-3.0316-6.6541.1488-4.5806,48.2013-4.0242,55.1301.159,1.9795,1.6557,3.6352,3.0802,3.6948Z" />
		<path
			d="M.0001,89.0509c-.0436,4.4493,12.2701,8.8138,19.2021,8.5144,4.8951-.2114,7.2435-3.7504,6.8951-8.082-.1622-2.0167.2627-5.8663-2.2156-6.925C14.5519,78.5726.0477,84.1873.0001,89.0509Z" />
		<path
			d="M1385.5749,162.4214c-14.3234-27.5881-23.6166-44.4454-15.9529-74.5622,2.9209-11.4775,7.6133-22.2629,12.6989-33.4455,1.1093-2.4392-1.778-4.1452-5.286-4.507-66.717-6.8816-133.9616-9.7493-201.5855-10.4828-65.5973-.7116-129.5629,1.5445-195.0758,5.3721-54.2574,3.17-106.4131,5.9423-160.8505,6.3369-60.0862.4355-118.4621-2.6109-178.1467-7.2158-1.472,3.8922-.0079,9.179-.6059,10.3804s-95.789,37.7628-95.789,37.7628c-5.7704,2.257-11.9761,1.6333-18.0537,1.7358,0,0,1.3068.7417-34.8882-.4922-2.042-.0696-3.9229.0884-4.5888,1.504-.4797,1.0197-1.7673,4.1729.3216,4.193l52.385.3879c16.0177,7.0724,30.4948,14.4043,45.7622,22.5157l54.955,29.197c.6324.31.4789.5597.4789.5597l-1.3202,14.5619c75.043,5.9256,149.4223,9.0918,224.8104,6.1478,48.0061-1.8748,94.0462-4.0499,141.767-8.2773,72.84-6.4526,144.1497-8.776,217.6152-6.8835,52.9059,1.3629,105.167,3.4393,157.1812,9.4189,1.8678.2147,3.7441-1.0263,4.2324-1.549.4884-.5227.4937-1.5834-.0646-2.6586ZM641.8837,146.4057c.1375.2918-49.1947-26.2817-75.4624-38.4167l-20.8276-10.687,96.1315-38.2495c-.043.2744,1.9253,57.3514.1585,87.3532Z" />
		<path
			d="M5.8068,188.3631c.0975,6.4939,17.3206,13.5773,23.5714,15.6575,42.2787,14.0703,92.9642,16.836,137.9617,19.9794,1.5082-2.5824,1.205-3.8257,1.5881-5.8803l169.757-17.1365c1.6011-7.1567,5.5269-19.2479-2.8122-19.4115l-156.783-3.0751c-37.7318-.7401-126.8104-4.6719-159.1666,1.7735-4.336.8637-14.191,3.1251-14.1164,8.0929ZM149.0617,194.2934l114.8337-.0817c9.8787.3038,19.3147-2.2739,29.0228,1.2633l-99.8244,2.0688c-24.1482.5005-46.9468.3507-71.0369.1141l-72.8532-.7154c-2.3286-1.2355-4.8819-.0715-7.2371-2.0101l107.095-.6389Z" />
	</g>
</svg>