<svg height="712" width="4032" xmlns="http://www.w3.org/2000/svg" viewBox="0 0 4032 712"><path d="M3352 0l1.011 4.994 1.977-1.987c2.297 4.5-.39 3.68-.658 4.228-.21.433.649 1.38.438 1.608-.501.543-2.167-.53-1.763 1.147l6.99.016c.728 3.094-5.487 7.827-2.988 9.988 2.047 1.77 2.484-3.896 4.46-2.97l3.526 3.49-1.99 1.98c.882 1.867 4.134 2.946 4.994 4.02 1.176 1.467.67 2.833 1.342 4.202.115.234 2.966.347 1.643 2.268-.26.378-4.184.439-1.97 5.014 4.054-1.127 2.351-6.712 4.239-8.752.98-1.058 5.526-2.015 5.726-2.289.69-.946-1.249-3.633-.976-3.948 3.146-3.631 1.79 5.7 2.005 5.989.12.16 3.713-1.804 3.969.497.108.977-2.435 3.314-3.494 3.518-.251.048-.786-3.882-2.479-2.006-.39.432.86 1.842.903 2.538.026.443-2.984.045-1.856 3.907.495 1.697 5.133.976 6.34.594 1.35-.427-.22-4.191 2.097-3.037 2.379 1.184 3.678 8.026.536 8.677-3.745.777-4.508-1.588-7.526 4.31l-1.486-1.991c-.583 6.146 5.6 3.957 8.98 6.994-.051-3.385 2.474-6.379 6.007-5.992-.988 2.214-.512 5.307-1.067 7.231-.473 1.64-5.313 2.61-3.92 5.761 3.425-1.865 7.112-2.323 10.985-1.989-1.52 2.433-6.547 1.835-8.99 1.995-1.128 2.508 2.076 1.914 2.01 2.476-.654 5.51-5.665.297-5.997.526-.087.06.261 1.32-.704 1.999-1.022.717-3.226.897-3.87 1.942-.213.347 1.32 7.71 1.638 7.964.796.636 3.876-.52 4.772.243 1.74 1.482.323 8.609 4.142 7.853l.014-3.014 2.98 2.006c.331-3.847-.134-5.544-3.986-3.996.32-6.2.842-8.213-5.999-8.5 1.797-3.356 8.555-1.266 8.942-1.537.23-.16 1.168-3.92 2.089-5.208 1.805-2.525 5.27-3.91 6.84-7.474.746-1.694-.26-5.404 3.11-3.282 1.323.834-1.709 6.85 3.01 7.501-4.129.067-2.354 2.254-3.235 3.254-.463.525-4.568.294-3.763 4.238 7.523.057.61 3.592.23 4.248-.55.95.089 2.47-.479 3.483-.489.87-5.442 2.89-3.254 5.268.785-1.592 7.927-4.621 8.499-3.991 1.634 1.799-3.255 3.9-2.002 6.008L3402.016 81l-.023 6.996c-4.087-2.657-3.89.66-4.475.796-4.709 1.086-7.45-1.724-6.528 7.202L3388.01 93l2.99 6.99c-2.406.234-5.143-.38-7.477.032-1.397.246-3.237 2.223-3.514 1.98-.37-.328.821-2.39-.999-1.998-.078 1.233.425 2.696-.258 3.819-.338.554-2.182-.463-1.747 1.166 4.951-.516 10.838.15 14.72-3.32.246-.221 1.23-3.787 2.57-4.356 1.278-.543 3.498-.164 3.685-.342.144-.136.167-3.825.029-3.967-.518-.532-4.232 1.098-4.004-.994 6.131 1.853 10.608-.834 16-.004-3.735 9.677 6.083-.86 6.707-1.018 1.513-.384 3.636.198 5.294.016 1.4 3.354-1.87 4.18-1.856 4.45.05.966 1.473 2.286.438 3.61-1.149 1.47-8.817 1.29.392 5.433-2.03 1.212-1.596 4.052-2.524 5.457-1.5 2.273-5.278.886-4.448 4.043 1.72-.802 8.51 1.02 9.51 1.985 2.523 2.435-2.138 2.321-3.51 1.02 1.862 3.871-.364 2.724-.637 3.242-2.635 4.986 6.28 1.44 5.621 5.737-6.097 1.19-6.714 13.972-13.982 8.02.25 2.74 2.94 4.635 2.989 7.623.034 2.088-1.562 3.047-1.629 3.9-.092 1.156 2.982 5.824 1.635 8.475 3.7 1.09 1.258-4.292 2-5.005h2.99l.015 5.006c2.623.17 1.33-7.067.828-7.83-.756-1.15-4.829-.159-4.833-2.16l6.992-.003c-.02 2.04-2.668 4.566.999 4l.008-4.02c1.213.57 8.576-.817 8.927-1.113.481-.407-.755-3.912 1.554-2.864 2.463 1.118.105 10.486-2.483 11.978 6.455 3.291 8.548-4.473 13.993-3.983.593 2.552-2.21 2.33-3.04 3.703-.892 1.48-1.568 4.092-2.619 6.075-1.085 2.05-3.065-.12-1.327 5.22 2.707 1.066 2.282-2.941 3.48-2.986.477-.018 1.844 2.143 4.586 1.587.791-.16 7.631-6.788 8.915-5.603 1.82 1.678-1.925 2.098-2.034 2.641-.44 2.182.859 4.26 1.045 6.351l-3.99.497c1.687 7.322 11.117 5.815 8.994 14.508 4.146 1.14-.945-6.114 2.476-4.984 1.927.637 3.867 3.207 5.81 4.195 1.148.583 10.804 5.5 10.69 2.29-.018-.498-5.188-7.085-5.985-7.995-2.74-3.127-8.782-4.92-5.997-9.497l-4.002-.012c-.325-3.982 6.388-.26 4.995-6.003l-1.984 1.015c-1.128-6.107 4.367-.886 7.988-2.502l-5.506-5.5-2.479 1.99c.654-4.408-3.075-3.704-4.721-5.292-2.788-2.688-5.523-7.225-9.302-9.214 3.404-7.065 3.84-1.597 5.225-.653.26.177 3.533.15 5.96 1.277 2.766 1.282 3.518.867 3.723.99.289.175 2.235 5.624 4.912 1.644.635-.945-.642-3.06 1.18-2.74.41 1.829 6.143 8.446 8.012 6.983-.68-1.45-1.843-2.43-2.515-3.975-3.788-8.714-9.107-14.557-13.487-23.323-.346-.692-2-.587-2.016-1.266-.025-1.055 1.145-4.051 1.514-5.421 1.418 5.546 7.243 4.473 8.595 9.954 1.223-1.047 8.59-3.603 8.91-3.971 3.492-4.013-12.408-6.16-13.991-8.502l11.977-1.52c1.106-1.644-4.892-7.404-6.118-8.335-1.436-1.09-4.09-2.04-5.867-2.645 1.927-4.187 7.184 1.838 10.994.004.043-1.595-3.866-2.06-3.975-3.49-.183-2.376 4.793-.339 4.977-.508-4.95-4.91-.67-6.522-.95-9.42-.16-1.667-2.466-2.965-2.05-5.052.328-1.642 3.165-1.288 3.832-.32.703 1.021 2.62 10.169 3.925 12.566 1.444 2.651 3.846 1.677 4.051 6.72.049 1.195-1.273 3.978-.806 4.505.32.361 7.805 1.294 8.991 3.524.534 3.474-4.31-.208-4.985.49-.086 7.163 4.754 4.23 8.985 7.51l-5.986 1.98c1.491 2.802 6.792.13 7.99 1.514 1.839 2.127-6.43 4.07-6.874 6.622-.224 1.293 4.092 8.044-1.112 5.364-.898 8.211 1.319 13.05 6.487 4.01 3.732 3.616 4.142 7.383 10.5 6.005.428 1.642-1.728.461-2.021 1.632-1.541 6.151 2.916 7.794 8.02 8.354.116-4.02-2.639-4.51-5.987-5.008-.226-1.802 2.031-.023 2.11-2.456.092-2.843-2.193-5.024-2.027-5.895.208-1.092 2.459-1.985 2.724-3.267.346-1.671-1.951-3.998-1.613-5.732.996-5.11 7.464-2.313 7.794-2.638.202-.2-.524-2.305.585-3.097 3.109-2.22 6.529 1.455 6.46-3.4-.098-6.86-2.433-4.42-3.738-5.748-.54-.55-.369-1.941-.917-2.65-.69-.892-2.346-1.047-2.462-1.693-.41-2.275 2.412-3.235 2.07-5.409-1.238 1.306-7.491-.517-7.99-1.03-.399-.41 1.341-3.764 1.008-4.976 4.706 3.053 7.627 2.517 12.984 2.014.507 1.756-2.39.47-1.992 1.484.31.793 5.703 1.671 5.965 1.486 1.397-.986 1.149-6.18-1.483-6.971l-.475 1.983c-4.707 1.867-2.608-4.956-4.022-6-.292-.215-4.546 1.175-7.232.799-.663-.093-6.737-1.658-7.07-1.807-3.153-1.408 2.93-5.574 4.83-5.96 4.787-.974 7.157 1.515 9.006 1.6 1.016.047 2.73-1.637 4.947-1.664 2.245-.028 4.972 1.612 7.526 1.05l-3.99 1.978 7.99 3.006c.988-2.827-2.58-1.932-2.903-3.548-.213-1.061 1.49-3.572.892-4.409-.24-.335-6.698-2.043-7.986-2.047.775-5.578 4.468-10.542 9.992-5.991.892-9.684-1.206-7.86-8.985-7.005-.3-4.762 4.495-9.078 8.988-6.998-1.525-3-1.565-5.697-2.005-8.995-2.294 2.138-4.238 2.122-6.983.504 2.898-.71 3.882-5.059 4.151-5.294.627-.548 2.604.017 3.844-.733.792-.478.79-2.408 1.557-2.548 1.967-.36 6.468 4.242 9.433 4.069-.784-5.652-8.921-1.8-5.983-9.002l6.985 2.015c.4 1.813-1.689.629-1.994.996-1.12 1.348 5.21 2.272 6.001 1.982-1.885-2.697-3.328-5.546-2.994-8.986l4.002 1.011c-2.398 7.187-.229 3.794 3.285 5.981.82.51 2.052 3.05 3.702 3.512l-3.985.492c2.342 9.758-.648 5.73-2.01 7.002-1.825 1.703 2.312 2.434 3.123 3.436 1.16 1.43-.33 3.426.792 4.085 2.745 1.614 10.317.436 12.085 5.466-1.358.707-4.843-1.197-4.99-.99-2.252 3.195 6.423 5.015 7.983 7.512l-2.998 1.498 2 3.985-6.99 1.5c1.354 2.19 2.527 1.013 3.981 1.052 3.786.103 5.516.12 8.686-.25 4.538-.531 4.817 7.528 6.496 8.534 1.086.651 3.434-.345 4.889.631 3.188 2.138 1.645 11.306 9.948 8.542-1.685 3.895 3.296 9.934 3.594 12.927.232 2.313-4.456 2.79-.64 6.99l-5.953 4.068c2.637-.591 5.134 2.816 6.99 1.516L3605 118.01l4.448.955c2.317-.988.568-3.068.87-3.754.828-1.875 4.491-2.02 4.677-2.218 1.879-1.988-8.734-10.151-1.005-10.482-1.56-3.376-4.036-6.619-3.986-10.505l6.68 2.315 8.333 10.671c3.112-.915.512-3.906.993-5.992 1.342 1.372 3.876 5.419 4.957 1.427.849-3.138-5.98-6.396-5.737-8.943.093-.985 2.454-1.96 2.668-3.12.147-.798-4.675-9.447-2.893-12.359 2.55-2.652 9.068 8.19 9.05 10.473-.009 1.068-2.503-.223-2.05 1.512 1.185-1.078 7.492 2.856 7.798 3.278.453.623-.048 2.296.28 2.597.747.687 3.883-.707 5.414 1.118.77.917-2.337 2.289 1.893 1.91 3.863-.346 5.412-.69 4.6-4.893l-3.971 1.995c-.482-2.797-3.317-6.065-3.985-8.538-.765-2.832 2.839-.375 4.078-2.047 3.037-4.101-5.749-6.832-2.641-11.443 1.925-2.856 6.757 2.273 7.447 3.818.63 1.408.43 3.69 1.139 5.472.439 1.104 3.235.114.93 3.737l3.03.013-1.024 1.985c10.907-2.363 4.757 5.258 11.997 8.007.666-2.027-2.743-7.932-2.729-8.526.018-.74 2.913-2.993 3.769-3.993 1.104-1.292.936-4.264 3.966-.945.815.894 1.17 5.41 2.992 3.466.123-.131-.181-2.07 1.032-3.449 6.443-7.322 7.427-2.643 11.001 1.716.686.836 3.346.804 1.97 2.713-.296.412-4.256.34-2.524 3.048 2.492 3.896 5.703-.824 8.526.97.285-3.09-3.138-13.033 1.507-13.024 2.14 5.012 5.14.609 4.524-3.401-.241-1.567-3.612-5.198.161-7.367 4.136-2.378 4.308 2.6 5.127 3.47 1.513 1.609 4.663 2.034 6.13 4.38.908 1.449.498 4.243 2.562 5.456-4.223-.306 1.543 9.325 3 9.997 6.03 2.782 3.837-6.878 4.11-7.33 2.231-3.694 8.413.948 9.885-.19l-2.995-4.984c4.024-1.103 5.105 1.415 7.777 2.76.919.463 2.965.033 3.2.258.93.888-1.268 6.67-.982 6.957.19.19 4.001.584 4.99 2.019l-2.99-5.99c6.284-.397 6.124 4.599 8 8.98l-5.993 1.021 4.99 3.494-1.991 1.484c4.38 2.097 4.065-1.02 4.503-1.024 1.68-.018 3.138 2.803 5.487 2.03-.57-1.46.14-5.501-.22-6.404-.588-1.477-5.011-2.013-1.476-4.374 2.148-1.434 2.344 1.892 2.648-4.145l-3.944-1.577c4.12-1.973 2.376-4.361-2.01-3.5 2.246-2.2-1.373-13.376-.969-13.958.127-.183 3.662-1.17 4.34-.972 2.127.623 1.687 4.628 2.88 5.7 2.8 2.515 18.212 5.46 16.574-2.023-.484-2.209-5.625-5.938-1.318-6.742 4.249-.793-1.11-4.31-1.527-6.558-.57-3.077 2.023-2.308 2.064-3.008.116-1.967-3.971-10.457-3.041-11.429 5.929-3.063 7.073 6.114 10.947 7.456 1.3.45 2.94-.735 4.39-.5.285.047 2.061 4.01 4.667 2.035.574-.436-1.22-7.357-2.09-8.412-1.663-2.014-3.705-.746-3.904-2.57 5.13-1.278 8.431-.933 11.984 2.992l1.99-2.997c1.473 2.163 2.046 6.459 3.035 8.224.681 1.214 2.884 1.612 2.965 2.267.284 2.28-4.11.172-4.7-.779-1.336-2.156-2.786-11.552-5.283-1.724 5.628-.922 1.177 2.706 2.871 4.564 1.66 1.82 6.361 1.374 7.668 4.427.735 1.715-2.538 4.14-2.521 4.518.028.65 6.925 3.897 7.007 8.99.04 2.462-1.202 1.343-3.03 1.512.446 1.402 1.385 2.822 1.086 4.4-.21 1.103-2.52-.078-2.071 1.58 2.301.644 6.886 2.344 7.88-.601 1.663-4.93-2.476-2.965-2.887-3.39-2.32-2.393 3.039-4.018 4.997-4.01l-5.981-9.497c3.694-.866 1.585-5.297 5.478-4.497.348.072 2.435 5.235 3.53 6.006.37.261 1.907-1.204 1.93-1.483.124-1.48-6.762-10.867.405-12.431 3.42 1.291 3.546 5.05 5.046 6.91 2.784 3.452 5.43 2.736 6.224 7.67.163 1.014-.862 2.552-.515 3.16 1.59 2.786 12.29.905 6.885 6.165l5.99.012c.983 1.735-7.41 6.843-.009 9.497l-3.973.504c-.67 3.096 2.173 1.314 2.793 4.248 1.07 5.067-8.036 11.278 3.208 8.743l-1.012-2.986c9.19-2.186 4.316 2.504 5.079 3.847 1.42 2.501 6.865.77 8.48 2.041 3.108 2.445.167 4.048-.168 6.097-.24 1.467.519 2.83.457 3.543-.03.358-3.743.832-1.84 2.46 1.167.996 3.117-2.3 4.47-2.002.293 1.746 4.319 7.055 4.302 7.486-.025.644-1.913 1.72-1.706 2.895.146.835 4.563 3.931 2.924 5.62-1.97 2.032-3.451-2.72-3.982-1.987-3.046 6.377 7.068 5.82-.012 11.982 3.228-.164 5.459 2.49 6.999 4.995-2.924-.103-5.857 4.413-7.73 4.877-1.91.473-3.591-1.06-5.248-.398-4.017 1.603-2.458 6.03-.173 4.346.199-.146.02-1.737.778-1.86 1.057-.173 10.639.837 11.66 1.273 1.657.709 2.82 2.952 2.709 4.772l-5.003.013 1.015 1.984c-12.864-3.444-13.45 11.355-.008 8.018l-.997 2.983 4.997-.002c.226-4.272-4.328-4.026-4.904-5.583-1.379-3.73.698-3.776 3.9-3.418.581-1.296-4.202-1.073-1.99-2.985 1.353-1.169 5.944 4.056 6.988 2.996.013-3.27 3.981-5.497 2-8.995 7.928-1.492 6.687 3.026 8.001 8.99-1.302.485-4.45-1.406-4.982-1.003-.27.204-2.07 6.097-2.061 6.434.016.624 3.384.472 2.396 4.367-1.284 5.067-3.86 1.609-4.342 2.204-.965 1.189 1.83 4.776 2.724 4.96 1.92.392 6.53-1.283 6.26 1.527l-3.471.506.492 2c-2.748.568-1.808-2.329-4.53-2.97-1.36-.321-1.904.083-1.467 1.46 1.105 3.483 6.183 6.882 7.495 10.622.58 1.653-.41 3.482-.077 3.961.219.315 6.543 2.576 7.197 2.637 1.732.163 3.602-1.063 5.665-.718 1.38.232 5.143 8.768 8.7 5.524-.406-2.024-3.432-2.946-3.817-4.148-.532-1.66.26-3.79-.65-5.384-.98-1.717-4.954-1.437-6.017-2.984-.684-.996-.401-2.88-1.078-3.921-1.21-1.86-3.433-3.309-4.425-5.576l3.989.011c-.788-1.555-5.751-3.2-6.002-4.015-.63-2.05.997-1.536 2.3-1.295 2.792.517 6.07 2.527 9.215 2.322.817-.053 1.814-1.446 2.978-1.47 2.047-.041 3.366 2.243 5.508 1.95l-4.57-4.967c-1.376-.812-4.947 3.551-5.427.45-.36-2.325 2.28-4.355 4.498-4.49 3.255-.199.11 2.448.5 2.99.213.296 5.908 2.222 7 2.01.46-1.697-2.084-.472-2.058-1.542.032-1.31 1.613-2.927.996-4.827-.44-1.354-2.817-1.271-3.012-2.297-.342-1.802 1.523-5.725.068-8.323l-2.474 4.99c-2.936-1.893.241-5.196-1.421-7.329-.867-1.11-4.884-1.156-5.094-4.651l15.994 4.985c1.842-1.769-6.5-6.65-7.058-7.431-1.105-1.542-.576-3.652-1.965-5.036-.969-.964-5.328-2.303-6.965-2.54.016-1.63 4.294-1.9 5.265-1.78 1.928.239 8.723 4.851 9.723 3.787-.461-3.433.53-10.288-4.005-9.001 1.42-1.44.035-4.33.291-4.826.107-.206 1.74-.163 1.771-.68.11-1.888-3.309-5.832-2.07-10.847.292-1.181 2.442.016 2.012-1.63-5.384-.064-5.97-1.553-7.992-5.998 6.835-.22 4.49-5.353 6.026-7.42 1.548-2.08 3.8-.699 3.965-2.58-8.835-.348-4.507-6.658-1.992-12.003l-5.993.987c2.218-5.885-1.954-7.781-2.009-12.992 6.28-1.885 4.454 3.069 6.597 3.8.699.238 3.943-.788 5.403.187-.04-3.224-3.875-2.973-4.528-3.934-.886-1.304-.06-3.756-.938-5.09-.658-.999-3-1.006-4.088-1.906-2.019-1.669-3.23-6.108.27-6.918 2.538-.587 2.852 2.815 4.286-2.134-1.384-.108-2.965.307-4.286-.045-1.357-.362-7.16-6.828-10.23-6.952l-.501 3.506-1.977.486.004-9c1.962-.32.535 2.502.993 3.004.48.526 5.604-1.486 6.998-1.014 1.114-1.09-5.75-7.226 1.998-7.006-2.61-1.213-5.218-9.186-5.047-11.426.045-.59 2.036-.517 2.123-1.161.25-1.848-2.377-3.8.419-5.378 1.364 2.21 7.297 2.874 8.05 3.931 1.04 1.46.071 6.192 2.439 7.562 1.817 1.052 5.546.21 8.134.906 1.692.455 1.771 2.043 2.207 2.232.833.363 11.374 4.097 7.673.36-.514-.52-4.172-.138-3.993-2.005 3.827-1.501 4.8 1.464 5.244 1.67.444.208 2.05-1.567 3.205 2.418.44 1.52-.502 2.734-.42 2.852.408.59 10.19 2.266 11.97 2.054l-.487 1.98-2.51-.49c3.138 4.902 5.585 5.462 8.98.509 1.668 4.516 6.641 9.273-.984 10.012-.738 3.271 2.432 1.145 3.65 3.416 1.724 3.212-2.324 7.326-2.322 8.055.002.822 2.451 2.85 1.734 5.881-.343 1.45-5.665 1.842-7.204 2.025-1.339.159-2.2-1.689-1.856 1.597l12.99 2c.108-1.987-3.577-1.153-4-2.5-1.012-3.215 3.819 1.457 4.936-2.107 1.008-3.216-2.59-5.042-2.797-7.049-.28-2.707 3.709-3.129 3.867-3.352.188-.263-3.26-3.92-1.995-5.976 3.363-1.323 4.034 1.644 4.282 1.725.967.315 1.935-.415 2.71-.113 2.375.925 5.525 5.42 5.012-.616 2.352.936 1.177 4.133 3.948 2.013l1.05 3.978c-2.916-.429-3.446.099-3.015 3.015l-4.995-.998c.314 6.088.743 3.383 5.23 5.09 1.147.437.239 2.591 2.765.9-2.172 2.505 1.184 5.7 1.009 5.98-.096.154-3.081.377-3.001 2.011 1.856-.023 3.853-.116 4.996 1.515-2.893-.237-2.163 4.565-.499 4.477.252-.013 1.438-1.979 2.99-1.984 3.88-.013 9.956 8.09 10.476 11.552.106.701-1.984.664-2.461 1.382-.14.21-.684 4.865-.502 5.04.36.35 7.155 2.4 7.995 5.533-2.547 2.41-3.43-.327-5.995-.496 2.643 3.976-5.915 8.497-10 8.001 1.69 2.403 3.983 5.407 6.997 6.003.398.574-4.49 1.72-2.522 6.989 1.019 2.731 1.381.072 1.668-.148.396-.304 3.843-4.163 3.847-4.457.035-2.264-2.046-5.153.021-8.396 5.836.36 4.952 4.162 8.986 6.504-5.666 2.67.74 4.133.996 4.514 1.366 2.036-3.717 3.374-3.998 4.498-.48 1.922 6.488 4.521.605 8.116-.965.59-2.504.283-2.606.374-.704.63 3.83 4.104-2.99 2.988 1.298-5.14.85-5.089-4-3.99 0 2.986 4.466 4.228-.017 5.477.902 3.781 4.753 3.27 5.028 3.527.215.201-1.383 2.271-.971 2.877.212.314 7.81 3.926-.044 4.124-1.013 1.137 5.961 3.637 6.99 3.99l-.989-3.991c8.372 2.302 3.386-.08 4.119-1.835.126-.304 4.151-3.548 5.368-3.161.416.132 2.664 5.295 5.507 2.982 1.953-1.589-6.726-4.553-6.047-8.484.094-.541 2.16-.434 2.06-.989-.207-1.148-4.265-8.113-3.003-9.505.51-.564 5.54.238 5.003-2.493-1.278-6.494-4.635-3.268-4.986-3.514-.227-.158-2.305-4.726-2.383-4.992-.511-1.737-.075-8.969 1.376-10.017l9.231 8.639 3.757.369c-3.194 7.176 1.256 4.275 2 4.995.49 1.894-1.76 2.376-1.581 4.06.326 3.073 4.945 9.416 6.497 4.316.97-3.184-2.038-4.059-2.681-6.686-.931-3.802 3.454-5.51 6.728-4.662.612 4.126-.502 8.019 4.034 9.968v583H0v-346l7 .01-1.993 4.987c2.888-1.078 3.654-.906 5.983 1.003-2.17-12.493 3.904-5.481 6.305-6.095 1.315-.336 2.568-2.528 3.7-3.41l-4.984 1.507-1.987-4.534 4.788-4.193c1.294-1.722-1.006-6.01-.82-6.265.735-1.003 6.695-.595 7.813-1.226 1.09-.615 2.25-6.849 3.69.211 2.948-1.505.05-5.101.631-5.82.286-.352 1.663-.398 2.312-1.24.483-.627.8-5.146 3.508-2.904.328.271 3.29 7.592 3.054 7.946-.218.328-3.879.395-2.995 3.017 1.81.39 5.738.114 7.05 1.476 1.082 1.123-.533 3.76 1.45 4.526 1.02.394-.271-2.499 1.483-1.988 2.782 4.039-.056 6.93.43 9.985.14.884 4.656 13.265 5.572 12.007-1.811-9.509 6.613-7.624 2.283.739-.84 1.623-3.925 2.371-3.268 5.256 3.211 1.455 5.411-2.685 6.63-2.9 1.084-.192 2.402 1.663 3.903 1.874 2.446.344 5.785-.522 7.828.164 2.82.949.415 5.972 3.12 4.859 1.405-.854 3.92-4.726 5.15-4.902 1.384-.2 3.763 3.426 7.346-1.59-3.676-1.803-1.521-3.768-5.962-5 3.405-5.236 6.684 2.8 7.978 1.493.418-.423-.89-1.91-.913-2.553-.014-.37 5.278-2.327-2.085-3.45 1.208-4.392 7.022 1.25 9 0l-1.995-5.985c2.742.82 7.459-.894 9.542-.594 2.265.325 3.814 5.372 5.386 6.08.986.444 3.145-.65 4.595-.601 1.769.059 1.244 1.688 2.22 2.045 2.155.789 6.083-.225 6.23.05 1.006 1.879-1.063 7.109 4.016 6.025l-2.99 1.98c3.98-1.385 3.714 2.696 6.503 2.032.366-.087.372-3.106 2.983-2.013 2.356.987.647 4.946 1.505 6.985l-3.987-1c-2.925 9.81 3.625 3.381 5.999 5.014l-1.014 1.984c1.872.107 4.4.307 4.999-1.974-6.13-2.085-6.645-8.35 1.006-7.01l-.996 2.984c.923-.25 4.82-.821 5-1.002 1.927-1.935-4.132-2.175-2-3.985.238-.203 2.034.344 2.747-.179 1.24-.91.537-6.112 4.243-5.839l-5.74-2.74L139.01 368c.45-.452 11.173 4.633 10.97 1.5l-3.973-4.497c7.114 2.144 4.61 1.172 6.98-2.297.438-.642 1.86-.61 2.025-1.39.916-4.319-4.842-8.756-.028-11.315 1.266 6.669 6.586 3.376 6.886-1.468.339-5.48.934-2.994 1.18-4.174.4-1.912-1.34-4.29-1.045-6.341 1.507.307 3.3-1.078 4.424-1.052.381.009 1.615 4.108 6.563 1.021l-2.99-2.492c3.533-.676 1.195-4.75.997-7.485 1.72.032 3.642-.315 5.3.187 2.695.816 1.994 4.459 5.691.803l-.98 5.994c1.645.267 1.168-2.66 2.524-3 1.494-.376 3.53 2.565 5.466 1.996-1.296-2.239-3.483-4.073-2.994-6.985 4.32 2.096 4.096-1.005 4.567-1.029.99-.05 3.826 2.173 4.34-.56.127-.672-1.257-2.068-.912-2.407 1.848-1.812 2.023 2.003 2.603 2.066.604.066 5.106-1.009 5.27-1.223.63-.823-.561-4.588 3.628-5.833.607.003 4.704 11.056 7.51 2.988 2.094-.223.466 3.347.993 3.993 1.854 2.271 1.636-2.947 3.482-1.993.428.221 4.954 7.344 5.093 7.934.283 1.197-1.463 2.229-1.575 3.584-.141 1.712 1.17 3.36 1.034 4.823-.05.528-1.398.67-1.932 1.468-.587.877-.404 2.278-1.545 3.273-1.148 1.001-3.143.26-3.893 2.153-.378.954-.003 4.545.888 4.813 4.582 1.376 2.882-1.631 3.686-3.259 1.872-3.789 3.1-7.137 7.752-5.8.892-3.003-4.698-4.584-2.985-6.996.383-.538 2.594 2.535 2.98 2l.02-4.999c1.376.429 2.774 1.383 4.324 1.075 1.543-.306 1.857-5.805 4.156-5.083 1.017.32.273 3.855 2.493 4.007l2.007-3-1.99 6.99 3.99-1.989c.701 2.573.663 5.596-.513 7.999-1.33 2.717-1.681-2.657-4.477-.99 2.945 2.317 3.454 6.022.699 8.69-.645.625-2.302.534-3.193 1.264-4.499 3.691-8.451 6.437-13.486 9.536 4.3.796 3.7 5.683 7.318 5.24 5.418-.665 2.392-4.516 2.653-4.736.545-.459 7.576-.133 8.514-5l2 3.993c.847-3.296 3.575-1.792 6.491-1.992.696 2.867-1.904 3.913-2.996 5.985 6.499-1.164 4.158 4.282 6.493 8.005l5.514-2-2.987-2.495 3.485-3.496c1.675 5.057 2.726-.113 4.19-1.058 2.668-1.722 6.265-.062 5.315-5.94l.998 1.993c.231.2 6.429-3.796 4.34-.048-.34.611-2.514 2.218-2.348 4.04 3.212 1.484.995-4.957 3.981-2.969.26.173 3.13 4.802 3.02 5.458-.457 2.731-5.638-1.76-4.005 3.516 1.391-.127 3.063.32 4.353.023 1.206-.278-.01-2.442 1.639-2.012 2.626 5.764-5.96 1.017-4.978 8.993 3.412-1.288 5.636-2.814 7.494-5.995l.5 3.004c2.034.617 2.918-2.856 5.021-1.553 3.247 2.011.94 7.127 1.65 9.308.398 1.22 3.397 1.87 3.776 6.09.182 2.02-.405 11.97-1.425 12.73-.809.602-2.916-.813-5.36.51-5.69 3.08-1.048 6.043 1.805 2.863.692-.77-.115-2.515 2.015-1.948 8.241 9.132-1.577 10.62-2.338 15.72-.118.789 1.979 7.722 2.357 8.258 1.93 2.737 8.024.8 10.98 1.556 1.58.404 2.629 1.938 4.262 2.3 2.602.579 7.787-1.44 9.762 1.202 1.464 1.957-1.013 3.958 5.49 2.945-2.7-3.397.715-10.92 3.635-12.914 4.524-3.089 16.639 5.378 19.906-3.067 1.534-3.965-1.043-5.68 6.45-3.01.63-1.898-2.392-3.031-2.004-4.483.186-.693 2.065-1.028 2.711-1.872.47-.615-.083-1.737 1.026-2.626 4.88-3.912 11.32.95 12.271-.012.057-1.66.076-4.586 1.24-5.777 1.104-1.13 14.946-5.832 17.66-7.343-.09-9.686 4.527.24 6.611.09 1.164-1.73 2.625-4.838 3.22-6.766.9-2.918-1.108-7.497 4.86-5.406 1.288.45 2.75 4.79 4.917.178 1.457-3.104-.59-4.575-.528-6.41.02-.589 1.735-.39 2.013-1.281.327-1.048-.237-2.855.022-3.294.18-.304 5.199 2.095 6.986.998l-1.991-2.49c2.654-5.718 14.444-1.923 14.985-2.509.177-.191-.336-1.862.27-2.675.564-.757 2.343-.844 2.607-1.881.652-2.568-2.893-7.306-5.372-4.446-2.645 3.052 3.02.751 2.467 3.465-.246 1.21-1.06 3.207-2.95 2.542.744-3.25-3.132-4.58-3.728-6.652-.451-1.569 1.196-6.066-.28-8.342l4.996-.016.485-3.98c1.688 2.823 4.82 2.177 6.78 3.036 1.195.524.092 2.755 2.735 1.944l-.997-2.983 4.002-.012c-2.933-6.755-.455-6.163 4.99-9.5l-5.99-2c2.875-1.049 2.735-5.095 6.063-2.771 4.546 3.175.724 6.545 8.931 1.261l-3.993-4.98c3.117 1.776 10.365-2.166 11.473-2.01 2.732.385-1.33 5.14 2.518 4.01-.576-3.897.205-4.566 4.001-5.018-1.188-.939-2.348-8.673-1.995-8.981 1.402-1.22 6.647 3.925 6.901 4.65 1.254 3.571-2.873 4.229-2.898 7.338.298.272 7.458-1.964 7.77-2.222.527-.438.813-4.489 2.714-4.624.543-.039 6.112 3.978 10.049 3.885 2.387-.056 3.65-1.622 5.202-1.808 2.803-.337 6.174 1.059 9.25-1.226 1.105 2.47-3.085 2.624-3.026 3.529.045.687 1.781 4.432 3.02 4.465 2.013-3.621 5.406-10.944 10.352-8.013 2.95 1.748-.901 4.171-1.236 4.813-.483.926.11 2.847-1.053 3.779-.293.235-5.174-1.282-5.027.927.293 4.431 7.727-1.166 9.97 2.499l-.987-3.992c1.43-.325 5.224.449 5.999-.015.086-.052-.626-.9-.306-1.99.217-.74 1.63-1.477 1.306-1.983-.109-.17-2.747-.391-3.514-2.018-1.431-3.035 10.816-3.292 4.512 2.989 2.537-1.183 11.06 3.799 12.002 3.006.103-.087.992-2.37.985-2.505-.056-1.024-3.16-1.224-2.983-1.986.684-2.958 4.383.82 5.469.495 1.074-.244 2.543-5.425 2.542-6.487-.001-1.044-4.245.029-5.011-2.018 4.364-1.593.654-1.136-.525-2.482-2.394-2.73 8.238-.623 9.514-2.01l-1.992 3.986c3.999 1.095 6.772 1.836 10.994 1.001.34-1.952-2.302-.419-2.92-1.062-.458-.477.337-2.608-.28-3.711-.397-.712-2.816-.71-2.795-2.207 2.938.072 8.614 4.742 9.012-.529.023-.317-1.656-.323-1.955-1.207-.496-1.467.13-3.613-1.057-5.265 3.03.79 4.758.406 7.491-1.028l.518 4.018 3.49-2.981c2.461 1.08 1.675 3.458 2.282 4.685 1.917 3.875 5.903-.507 1.221-2.199.543-.803 5.085-3.692 4.994-3.999-.818-2.756-2.867.25-4.272.244-.679-.003-3.742-.721-3.734-1.259.07-3.881 5.81-2.913 7-5.005 1.045-1.836-4.015-1.447-1.98-3.484.153-.154 2.238 1.098 3.498 1.082 2.037-.028 4.712-1.337 5.846-1.164 1.115.17.902 4.003 4.135 3.072 2.055-.592.414-3.541 1.434-4.493 1.445-1.349 4.168-1.514 6.076-1.508.081-2.104-6.165-1.685-3.996-3.975 1.044-1.102 9.404-4.863 10.498-1.033 2.192-1.32-.173-3.554 1.89-5.05 1.028-.745 4.014-1.478 4.604-.926.44.41-1.52 9.782-.992 11.987 4.67-1.489 4.136-4.926 8.989-.971-4.293 4.26 1.958 2.571 1.697 7.306-.35 6.385-11.933-1.866-10.68 7.672 5.67-6.413 5.993-.119 8.496-.35 1.474-.135 5.53-4.263 7.489-1.641.697.933-1.628 2.789-1.65 3.487-.06 1.938 3.62 3.76 3.673 4.026.616 3.074-2.011 2.307-2.048 3.041-.111 2.233 2.542 6.505 1.026 9.427H623c-1.92-2.164-1.58-3.25-.99-5.984 1.954-.263.222 2.093 1.573 3.11 1.13.85 3.306-.276 3.388-.127.262.476-.013 2.687.5 4.007.573 1.476 2.046 3.122 2.144 4.504.209 2.92-3.427 1.645-2.606 4.5l2.983-.997.013 7.993c4.906 1.3 6.265-8.512 10.823-5.806 1.326.786.762 5.11 6.171 2.82-1.752 3.612-5.063 5.912-7.996 8.496 3.345 3.353 7.005 4.488 10.972.963 1.894-1.682-.287-1.41-.973-3.457 4.643 0 7.663-2.197 11.997-3.002l-1.995 3.985c5.6.705 9.138-1.308 12.985-4.994 1.053 4.607 2.753 7.117 1.017 11.996 1.148-.59 5.763-.808 5.997-1.002 2.238-1.86-2.587-1.72-1.998-2.983 4.334.239 4.386-1.588 6.502-4.008.53-.607 2.032-.765 2.287-1.2.689-1.18-.536-8.64 2.706-8.784.688-.03 4.563 10.526 9.499 8.991-2.34 2.363-1.106 4.004-.994 6.995 6.625-.044 5.977-4.692 8.51-8.996 4.672.842-1.307 3.102-.51 4.985 5.232 1.755 5.436-2.594 6.016-2.996.278-.192 2.904 3.489 5.692-.205.208-.276-.434-3.994 1.801-4.784 3.368-.416.189 3.763.488 3.983.236.173 5.134-1.89 4.977.508-.157 2.413-5.905.426-5.972 2.487 6.715 2.96 10.745-.027 10.985-6.985l-2.983.996c-.296-2.47 2.507-4.412 2.702-6.621.168-1.904-1.65-4.382-.269-6.422 1.598-2.358 7.576.192 5.567-6.955 2.232 1.473 2.841 5.623 3 8 3.355-2.059 5.696-13.105 4.971-16.329-.12-.53-6.594-4.059 2.03-3.676-1.464-2.152.701-4.425.61-5.491-.12-1.392-3.996-3.38 2.374-3.51-1.492 4.982 7.038 15.85 11.861 12.848.52-.323 2.105-6.527 4.14-7.347-8.264 1.195-4.361.241-6.918-3.071-1.291-1.673-4.392-.762-2.612-3.458 1.033-1.564 3.924-1.986 4.533-3.958-9.665 2.59-4.22-2.12-4.355-4.482-.042-.728-2.933-4.258-1.638-5.521 2.798-2.73 6 7.06 6.515 7.018 1.9-.151 3.226-3.048 6.477-1.03-1.337-1.374.176-3.871.015-3.989-.609-.446-4.434 1.186-3.003-2.495 2.194-5.64 6.676 3.121 7.52 5.459.382 1.055.13 8.592 2.46 6.034 1.08-1.186-.069-5.966.238-7.254.446-1.875 2.952-3.482 3.526-5.494.684-2.401-.248-5.348 1.308-7.693 2.226-.446 9.56-6.571 10.938-5.551-3.724 2.3-.365 8.004-1.008 8.99-.055.087-1.395-.808-2.003-.428-.897.559-4.738 5.648-5.981 6.934l3.985-.503c.498 3.427-1.61 6.111-2.992 8.987 6.485-2.225 8.58-.359 14.051-5.462 1.998-1.863 1.86-5.262 5.94-3.038-.607 1.373-1.412 2.586-2.135 3.864-1.813 3.203-5.621 7.522-8.397 10.583-1.293 1.426-3.831 1.967-4.459 4.053 2.23-.246 5.305.557 7.34-.15 2.507-.873 10.173-13.51 14.655-6.335-3.587.816-5.547 3.483-7.988 6.009-.697 1.978 1.99 1.2 2.02 1.984.123 3.369-5.343 2.448-6.36 4.71-.889 1.978-1.005 6.499.214 8.214 1.018 1.433 5.313-.464 4.11 2.063-1.325 2.78-10.224 2.514-9.986 7.51 7.567 2.794 8.942-3.81 15.992-2.988-1.056 2.96-1.315 7.107 1.993 8.993-.638-4.93-1.474-10.333 3-14-.182 3.638 1.954 6.465 2.947 9.6.477 1.504-.738 6.35 3.47 5.34 3.26-.781.57-6.005.812-6.78.67-2.15 11.808-3.75 8.787-11.158 9.469 4.527 6.234-2.93 11.509-7.992l1.39 6.394c-.229 2.66-3.318 6.076.6 7.592.755.292.799-2.684 2.005-2.998 1.896-.492 3.083 3.679 5.485 2.997-.363-3.792.578-10.367 5.001-10.997-1.094 4.109 2.361 2.372 3.077 3.65.904 1.614 2.162 8.942-.073 10.342 5.663 1.713 5.738-9.605 7.515-9.985 4.101.006 1.134 4.681 1.488 4.987 1.88 1.627 7.089-3.007 7.502-2.969 1.217.113 1.182 3.27 1.747 3.784.89.809 3.868-.98 2.772 2.701-.619 2.078-3.442-1.848.644 3.87.772 1.081-.223 4.146 2.236 2.119-1.552-1.482 2.825-3.692 3.596-5.477l.486 5.468c1.426 2.09 3.202-1.532 3.492-3.027.352-1.81-2.27-2.924 2.517-2.467.918 5.232-1.033 8.102-3.995 11.996l5.995-2.985-.991 4.988 3.986-.993-.98 9c1.211-.493 5.44-1.232 6.35-.933.996.327.046 3.285 3.636.925 1.671 7.922.192 12.505 9.997 9.01l-.984 5.997c3.154 1.162 6.927-12.41 8.986-9.994.237.278.008 6.956-.107 7.303-.659 2.003-5.107 2.038-3.88 5.7 5.457-2.953-1.926 7.044-1.003 7.987 1.281-.212 6.162-2.381 6.573-2.938.576-.78-2.325-4.278 1.92-3.084.548.154 3.257 5.742 3.36 6.79.215 2.187-2.702 5.07-2.037 8.06-3.304.765-4.017 3.042-6.811.177-.243 1.83-.06 2.915 1.483 3.975 3.818-2.816 2.516-1.488 3.52-.678 3.436 2.773.008-3.826 4.982-2.292.871 5.517-6.992 6.825-9.109 9.47-.86 1.074.224 2.454.114 2.516-1.283.722-14.502-3.304-6.5 6.988l1.51-3.978c3.422.278 1.053 6.08-.155 6.91-.484.333-9.375-2.815-9.855 3.078 1.814.762 3.639-1.661 4.499-1.63.693.027 1.617 1.486 2.945 1.555 1.061.054 3.167-1.29 3.547-.924.306.296-.104 6.086 4.049 3.55 3.08-1.882 1.35-9.622 2.101-10.413.374-.395 2.486.026 3.367-1.094 1.318-1.678.329-7.028 3.482-8.033 1.225 4.007-1.646 10.19-1.037 13.49.208 1.129 2.669.185 3.06.511-.703 2.223-1.22 4.155 1.982 3.994-1.06-4.397 1.887-7.494 3.003-10.504.215-.58-3.167.125-.989-3.488 2.564-.933 1.693 1.775 2.622 2.01 5.344 1.35 2.633-5.513 8.365-5.007-1.101 3.546-2.164 10.136 2.897 8.886.184-3.318 3.853-5.291 4.672-7.827.62-1.92.088-3.776.466-5.355.096-.404 3.618-2.63 3.464-4.706 2.865 1.208.253 14.483 7.5 13.003-.092-6.672 3.255-6.413 3.02.462-.062 1.828-2.214 5.334.49 6.525.584.258 4.03-10.865 7.49-9.99-1.055 1.896-.683 10.465-1.026 10.899-.414.522-3.278.467-3.803 1.27-.171.264-1.003 5.774-.923 6.215.317 1.735 3.362 3.092 4.699 4.218 1.51 1.272.414 3.88 3.597 1.433 4.614-3.55 2.204-11.282 2.908-12.108.985-1.154 3.37-.76 3.568-.944.228-.211-1.87-4.578-.007-5.982 2.62-1.972 2.52 3.526 2.695 3.976 1.738 4.49 2.734 5.651 1.307 11.013 1.678.45.452-1.921 1.592-2.077 1.034-.142 8.137 1.447 8.393 2.597.602 2.706-2.763 1.548-2.852 1.687-.6.945-2.435 4.849-1.93 5.634.177.277 5 2.314 2.78 5.16-.663.85-4.1-2.887-4 .494.009.287 2.895 1.453 3.62 4.206.47 1.787-.595 4.18-.46 4.837.15.723 2.895-.325.851 3.462 5.576-2.166 4.51.604 4.988 5.003l-2.982-1.998.019 9.99c6.777.55 7.71-2.582 12.455-5.985 3.825.825-2.397 10.315-1.48 12.99 2.89.653 2.563-3.04 4.327-4.673.627-.58 2.312-.388 3.136-1.262.166-.176 1.491-4.346 1.54-4.582.035-.174-4.323-1.065-.492-2.468 1.888-.692 2.266 3.897 2.246 4.726-.04 1.673-1.428 1.935-1.76 3.254 2.884.125 3.907-3.178 6.08-4.407 4.568-2.585 6.571-1.555 10.915.41-.213-5.92-2.058-4.247-5.322-5.973-1.244-.658.429-3.16-4.672-1.029.044-3.457 4.226-8.329 7.519-8.975 4.647-.91.962 2.692 1.49 5.984 2.69-1.947 4.955-3.118 7.985-4.505-4.829-1.358-1.526-7.917-6.991-7.99 1.549-2.14 1.867-1.264 3.708-.717 2.715.807 2.502 2.05 4.276 3.206-.469-4.706 5.584-5.753 6.001-9.994-6.346 3.486-19.832 5.528-11.485-4.995 2.19 6.89 2.01 2.427 4.474 1.611 3.267-1.082 11.578.812 13.012-3.131l-4.49-5.466-2.488 2.973c.023-1.838-1.982-3.543-1.762-5.284.718-5.68 8.32-4.457 4.75-11.7l4.508-.004c1.227-2.082-3.341-5.378 3.005-8.007.445 2.428 2.89 1.677 3.592 2.62.277.373.95 8.803.71 9.2-.547.9-4.234.584-2.688 5.547 1.233 3.956 4.902-1.444 5.867-.36-2.286 8.615 2.733 4.664 2.996 4.997 1.77 2.247-7.238 5.123-7.502 7.993-4.553-.59 3.504-5.385 3.51-6.984-6.001-1.356-7.883 3.439-5.994 8.444 1.78 4.718 1.92.189 5.99.551 1.166 1.115-4.052 6.772-3.977 7.505.108 1.053 4.13.824 2.972 3.979-1.005 2.735-4.681.138-4.983.514-.305 2.762-.128 4.814 2.986 5.01l-3.002.99c.533 5.96 2.509 3.493 7.009 3.007l-3.995 5.985 8.99 1-3.003-5.987 3.01-.011c.117-2.436-1.516-4.848-1.005-7.294.128-.61 1.39-.553 1.895-1.509 1.262-2.387.473-4.354 4.625-6.182 3.069-1.352-1.209 4.084 1.973 2.995 1.332-.456-.873-3.891 2.505-3.007-1.225 7.395 5.635 3.45 1.007-.992 6.17-1.079 2.825 4.69 7.997 4.002-3.01 1.366-4.616 7.559-.551 5.938.732-.292 9.223-11.888 9.426-12.65.653-2.456-2.165-3.942-1.869-6.293 1.35.656 9.428 2.448 9.993 1.987.19-.155-1.451-2.865-1-3.984 2.349.172 7.836-1.63 3.712-3.281-1.552-.622-3.837.645-4.528-1.222 2.53-4.592 1.966-14.829 8.811-11.508-2.216-7.108 1.018-4.643 1.786-5.305 1.313-1.132 2.153-5.238 5.216-4.693.023 8.292 2.976 2.985 3.506 3.016 1.158.068.592 4.6 4.492 1.987 1.306 4.99-4.726 1.563-5.992 5.987 2.716.273 4.635 1.783 6.502-.97 3.388 2.266-1.08 3.825-.493 6.98l2.988-.991c-1.25 4.63-1.935 2.042-4.102 2.544-2.616.605-4.931 1.992-7.89 1.458.068 2.498 3.896.8 3.984.986.495 1.038-.389 4.505.032 6.318.186.8 1.747.231 2.05 2.128 1.072 6.695-2.703 2.65-4.072 7.548 3.791-.152 9.848.724 13.084-1.501 1.46-1.003-1.428-2.506 1.432-2.523 3.444-.021 3.942.502 5.46 3.54-.67 1.792-4.564.939-4.977 1.5-.297.405 2.583 6.653-1.998 8.984 2.046.36 2.55-1.777 4.54-1.985 1.126-.118 2.889 1.092 3.528.574.79-.642 2.12-6.728 6.294-5.528.56.16 7.496 7.758 7.627 8.464 1.008 5.424-4.89-1.157-4.985 4.48 5.867-1.124 10.398 4.28 5.996 8.995 3.06-1.669 4.844.945 6.486 1.052.283.019 1.028-3.546 4.519-2.046 1.051-3.19-2.464-1.469-2.974-2.02-1.526-1.654 2.066-7.846 4.484-7.759.347.013 4.91 3.798 5.428 4.339 1.516 1.585.854 4.301 3.507 4.445 2.404.13 8.735-5.2 5.55-7.992 2.586.198 4.86.22 6.504-2.005 1.043 1.435-.567 3.299.022 5.128.43 1.334 3.249 4.623 4.392 3.755.3-.228-.513-2.114 1.506-1.93 3.463.313 5.851 4.326 9.575 4.033-7.007-4.712.682-3.793-.005-6.476-.444-1.735-5.882-.422-3.985-5.514 6.17 3.236 3.55-2.831 6.972-4.991-.182 2.025 2.2 2.078 2.595 3.932.303 1.424-.671 2.929-.578 3.053.472.623 4.177-.043 4.96.495 3.488 2.399 1.005 9.376 7.053 7.514-2.43 4.772 2.279 6.113 2.806 7.643.265.766 1.753 6.757 1.87 7.624.42 3.101-.233 5.715-.678 8.73 3.265-1.605 5.27-3.558 6.486-6.996 2.403 3.225 5.418 5.551 4.509 9.993l2.004-3.005c3.436.81 2.302 4.105 5.955 2.489.62-.274 5.6-3.51 5.788-3.8.765-1.185-.608-3.41 1.735-2.674.669.21 1.827 2.427 2.497 1.977.121-.081-.28-1.27.512-1.714 1.222-.685 6.112-1.244 6.352-1.464.773-.705 2.106-6.695 3.637-6.748 3.523 1.085 2.554 2.638 2.51 5.937L1267.01 458v4.005c2.03-1.385 4.435 2.513 7.984 1.99.15-7.082-5.92-11.262-1.981-17.988l2.987 3.983.038-9.967c3.396-.56 4.232 1.836 4.678 2.01 1.706.668 3.996.164 5.312 1.448.755.736.183 1.917.599 2.553.563.861 2.493.72 2.374 1.453-.257 1.584-2.835 2.673-2.967 3.226-1.506 6.351 2.28 2.824 5.471 6.282 1.51-1.343-1.05-3.064-1.234-4.6-.058-.49.553-5.362.695-5.77.431-1.239 2.355-.124 3.154-1.216.845-1.156-.69-5.823 2.394-7.403.46-.236 5.64 4.224 7.37 4.172-.896 3.2.541 4.804 1.186 7.786 1.773-1.062 2.14-1.24 1.942 1.025l.974-.003c-.079-2.157 4.162-2.43 6.002-4.984.795 7.732 11.928 5.465 6.01 13.985 7.643 3.33 4.272-3.22 7.989-7.502 4.449-5.126 6.93-.305 9.505-.433.564-.028.11-4.879 4.14.219.212.268-.493 1.02-.282 1.499.126.287 1.672.242 1.635.684-.074.874-3.072 5.513-1.98 6.54 2.567 2.416 3.086-2.474 3.255-2.67.76-.878 2.509-1.167 3.252-2.33l2.483 2.006.015-4.007c2.738 2.086 1.78-.679 2.932-1.446.708-.471 2.16.564 3.055-.025 1.51-.995 3.42-6.988 5.015 1.479 1.87.785 3.668-1.674 4.509-1.669 1 .007 1.69 2.296 3.479 1.658-3.268-2.894-3.231-5.4-5-8.98 8.841 1.346 3.494-4.106 6.498-8.02 1.438-1.873 3.487 2.819 5.035-1.017 1.61-3.987-3.563-6.176-3.605-6.575-.392-3.736 3.714-3.275 3.914-3.5.331-.369.28-7.2 3.67-8.892 3.406-1.7-.633 4.844-.515 5.473.506 2.692 3.885.027 5.013 1.03.442 2.676-4.714 3.158-4.993 3.551-.172.244.297 5.693.455 5.946 1.578 2.52 5.074-1.903 7.523-1.001.755 3.2-3.276 2.14-4.962 3.53-1.098.906-1.528 2.987-1.033 3.46.793.76 14.066-1.192 10.024 5.55l-5.034-.035c.399 3.888 8.506-.312 5.53 5.5-2.128 4.157-9.308-1.655-9.522 3.985l9.01.012-1.022 1.987c2.986-1.828 6.856 9.592 10.012 6.998.402-.33-2.669-7.293 5.987-2.994-.028-2.862 3.393-6.623 3.793-8.754.655-3.49-2.201-4.512 4.213-7.25l2.004 3.001c-.376-4.185-.403-6.71 3.997-8.008l.504 3.008 4-4.99c8.623 14.154 4.764-.91 6.692-2.887.332-.34 1.96.161 2.524-.344.507-.454.437-2.12 1.318-3.208.545-.672 2.933-1.394 2.952-2.062.008-.252-2.233-1.645-1.99-2.978.186-1.021 2.29-1.889 3.483-1.502 1.43.463.855 3.213 2.515 2.97-1.248-2.086 3.64-4.228 2.01-5.991-.464-.504-3.628 1.202-2.991-1.49 1.648-1.889 3.992-2.722 6.483-2.522l.5 3.008-2.99-.991c6.706 6.418-1.124 8.766 1.007 14.998 8.189-3.113 2.628 4.613-.999 2.988-1.656 2.418 3.253 10.641 4.98 9.007l1.998-4.52-2.985-.489c.169-4.877 10.192-3.639 12.466-.963 1.918 2.259.936 4.31 1.595 6.228.298.868 1.75.734 1.912 1.435.196.846 1.734 12.18 1.66 12.83-.116.996-1.98 1.844-1.62 2.462.06.102 1.267-.27 1.695.517 1.474 2.708-.391 8.731 4.117 10.4 1.122.416 7.87.4 8.115.071.641-.86 1.522-12.345 1.953-14.486.435-2.165 1.763-3.803 2.21-5.972.729-3.54-.82-7.64 2.4-10.51l1.507 3.992c3.082 1.2 3.796-6.077 5.49-2.995 1.111 2.021.42 3.502.73 4.512.17.55 1.728.14 1.873 1.94.22 2.73-2.311 9.351 1.526 10.49 4.08 1.213 6.997-8.583 11.361-4.946.909-2.306-1.696-4.57-1.553-6.081.119-1.258 3.46-3.735 4.075-3.702.95.05 2.084 2.582 2.974 2.57 1.265-.016 2.51-4.237 4.604.624 2.122 4.927-1.026 7.758 7.323 8.597l3.575-8.005c-.159 4.13-2.6 7.894-.978 11.998 2.748-.803 2.34-4.525 3.498-6.084.684-.92 2.294.142 2.401-.041 1.28-2.189-1.275-2.922 5.079-3.873.28 2.256-.81 4.329-.977 6.52-.109 1.433-.888 3.968 1.471 3.47.754-1.387 2.607-7.4 2.619-8.48.034-3.089-3.227-4.522-3.097-7.507 2.213.702 3.784.779 5.987-.011l-1.993-3.982 3.95-.061.566-9.94c4.96.539 3.814 10.11 4.489 10.988 1.728 2.248 2.069-3.027 2.982-1.99.482.548 1.652 3.911 2.036 4.991 10.346-5.2-.364-7.156-.994-8.067-.55-.796 1.094-3 .504-3.983-.62-1.03-3.361-.898-3.573-3.435-.58-6.942 3.315-4.725 4.847-5.67 4.041-2.492-3.193-5.869-2.813-8.32.607-3.928 6.493 4.132 8.001 2.471-.571-1.401.103-4.412-.277-5.38-.556-1.416-6.678-4.533-4.713-6.61 1.274-1.346 7.597 5.702 6.985-2.003l-2.985.504c2.358-3.611 4.496-1.973 7.989-1.51l-2.993-3.985c4.755.2 9.776-6.385 9.936-10.587.088-2.325-1.466-3.55-.455-6.438 1.039-2.967 1.795.97 1.942.955.9-.094 2.198-1.372 3.584-.932l-1.017 1.984c5.652.793 4.949-5.198 9.518-6.982 2.268 3.614 2.33 6.122-2.503 5.484.675 3.29 3.5 2.144 3.999 2.515.204.152-1.725 3.6-1 4.986l5.007-2.484c-.342 4.398-6.417 4.57-5.007 9.484l5.5-4.992c2.53 5.426 3.14-.59 6.49-.998.904 4.547-6.082 3.964-4.998 8.992l1.995 1.994 4.514-1.985c2.22 2.164-6.41 7.563-5.453 8.906l3.937 3.082c-1.158-4.257 3.731-3.212 7.01-3.984-3.385 2.087.26 5.666-.002 5.982-.302.365-2.392-.816-1.99.995l6.987 2.007c.58-1.867-1.636-2.44-1.835-3.675-.164-1.014 1.112-1.82 1.338-2.837.181-.814-.752-1.972-.492-2.483.07-.135 2.29 1.317 2.984-.514.413-3.382-3.702-.162-3.98-.486-1.318-1.53.468-4.021 2.992-3.003-.628-2.91-2.934-4.553-1.992-7.991l2.98 2.994-.905-12.92c2.39-.215 5.852-2.022 7.966-.618.003 4.089 3.201 3.752.95 7.53.856.71 6.527-2.598 6.91-3.135.498-.696-1.116-2.878-.973-4.236.065-.623 1.745-.447 2.017-1.342.481-1.584-.582-4.136 1.56-5.27 1.879-.993 1.284 3.711 3.477 1.985.457-.36-.067-4.947 1.508-4.973 1.57-.026 1.378 6.31 1.527 7.441.119.9-.552 3.564 1.464 2.533 2.182-1.117 5.72-7.39 6.004-9.99 6.503 8.301.765 5.562.513 5.996-.403.697.245 3.73-.003 4.995 2.711.981 2.849-3.916 4.495-3.975 3.195-.115-1.504 6.504 1.985 5.97l4.51-3.99c.723 2.243-1.322 5.55-.85 7.304.334 1.234 2.135 1.892 2.556 3.344.328 1.127-.595 4.636.31 6.35 4.004-1.868-1.782-5.657 3.98-3l-.98-5.993 2.979 3.99c-.237-3.734-.18-3.395 3.004-1.987l1.016-6.01 1.995 4.007c5.932-1.506 2.88-.664 4.085 1.138.611.913 1.837 1.046 1.936 1.55.606 3.09-3.791 7.336 1.97 6.312l.012-6.011 1.967 1.014 2.015-4.008c1.768 4.837-.386 3.486-.927 4.767-1.396 3.301-.59 8.953 2.442 11.228 1.432-2.689-2.044-6.777-1.35-9.301.473-1.714 3.976-4.966 2.85-8.698l2.986 1.003.02-5.994 1.98 2.99 1.509-5.975 2.513 5.972c2.184.038.407-4.22.992-4.987 1.499-1.965 2.046 1.853 2.728 1.999 2.51.535 3.856-1.4 3.276 3.002l2.98-2.006-.991 6.993 4.01.004c-1.126 5.029.736 8.287.997 12.998 5.267-.201 1.44-5.317 1.978-8.293.06-.328 3.296-2.407 3.521-3.698 1.162 1.213.111 3.667.512 5.32.187.77 1.882.62 2.018 1.34.118.627-1.086 11.352-1.359 12.674-.198.961-2.089 2.332-1.675 2.652 5.473.027 4.872-1.55 5.987-5.526.449-1.6-1.072-2.975 2.009-2.459-.158 1.998-.842 5.514-.026 7.317.441.975 1.8.57 2.622 1.073.47.287.411 1.679.96 1.658 1.291-.05 5.886-2.3 7.416-3.084l-1.9-1.002c-.537-1.447-1.331-4.8-2.313-5.713-1.14-1.06-7.208-.972-4.75-4.256.248-.332 7.443 1.783 6.792-2.52-.161-1.069-11.16-7.223 3.203-5.488l-2.998-3.978c4.707-.67 7.555-2.504 9.986-6.53l-6.989-1.491c-.974-3.258 2.56-1.496 3.002-1.995.55-.62-.858-2.812-.897-3.552-.024-.444 1.59-.288 1.84-1.164.486-1.698-.305-5.839 2.043-6.273 1.318 2.884.682 7.71 2.024 10.225.754 1.414 6.283 5.152 7.424 6.801 1.404 2.029 2.458 5.583 1.573 7.964l7.987-3.993c2.022 7.173-4.008 4.922-4.997 6.003-.239.261.768 6.738 1.009 6.996.391.418 3.762-1.44 4.99-1.011.086 1.063-.278 2.31-.02 3.304.341 1.31 2.428.034 2.018 1.693-2.337-.059-6.305-.171-8.32-1.195-2.971-1.51-.238-4.461-7.674-.781-.237.318 3.739 6.499 4.257 6.687 2.782 1.009 4.373-.726 6.301-.61 2.366.142 6.936 4.809 8.432-2.09l-3.986.504c4.171-2.726 3.013-8.083 8.994-7.515-3.983-4.567-.837-3.42-.325-4.176.286-.422-.456-1.414-.269-2.088.818-2.946 2.487-2.994-.405-6.716 4.94.44 3.6.13 4.495-4.005 3.178 2.52-.56 15.68.512 16.992 4.135-.965 9.799-2.791 11.994 1.984-6.737 2.717-2.928 2.297-1.542 4.017 1.715 2.128 2.933 6.818 6.048 9.003 3.708.951 1.384-7.575.481-9.24-.607-1.119-2.388-1.118-2.827-2.388-.783-2.268.165-5.86-.151-8.368l2.517 7.969 4.468 2.024c-.971-3.09 2.268-7.87-.986-8.998l-1.995 1.997c-2.723-6.078 1.027-2.854 2.033-4.635.867-1.535.845-5.443.957-7.365 3.28-.908 2.314 5.209 1.998 6.993 2.78.868 1.83-1.821 2.958-2.487 1.48-.874 10.125-.937 4.043-3.998.593-1.166 3.776-1.932 3.831-2.987.022-.427-.977-1.53-1.206-2.437-.179-.706.356-1.855.235-1.953-.6-.485-4.503-.167-3.858-2.613 4.907-1.644 3.978-3.744 6.5-7.51 1.009 1.18 1.467 6.349 1.299 7.521-.039.269-3.197 1.255-1.778 4.427 2.531-.83 4.924 2.004 6.444 2.08.942.048.959-3.98 3.52-3.033-.183 2.46 1.98 4.122 2.11 6.496.107 1.947-1.204 3.964-1.138 4.92.068.973 2.747 1.036 3.037 2.094.627 2.284-4.778 2.61-3.993 5.487 5.46-2.254 3.475.56 4.004.988 3.575 2.894 2.956-9.112 3.073-10.364.48-5.14 3.522-5.088 3.833-6.233.552-2.035-2.867-5.687 2.076-7.386l.018 8.994c3.352-.587.356-6.12 1-6.995 3.532 1.563 1.704 6.055.97 8.999l-1.972-1.006c-.546 3.082-.27 6.328 3.57 5.724.912-.143 1.055-1.945 1.744-2.376 1.663-1.042 3.603-.55 4.509-3.035 1.358-3.724-1.796-3.257-1.881-3.927-.062-.488.713-6.306 2.039-6.374-.285 6.305 3.437 6.471 7.01 9.985-9.415-.724-8.022 6.758-2 11-2.753-1.794-6.285 2.735-4.994 4.004 2.043 2.009 3.438-2.734 3.982-1.987.624 1.52 2.052 8.507 4.498 7.987 3.6-3.05.413-5.43-1.485-7.985l2.994-.503c-1.098-3.015-4.888-2.997-3.984-6.506 6.825 5.091 5.062-2.435 3-7 2.869.473 4.224 7.724 6.522 4.005.156-.253-.41-5.713-.618-5.926-.32-.329-5.603.105-5.914-3.07 2.222-1.188 7.123 3.918 7.997.474.889-3.5-3.934-4.018-4.997-6.474 8.42.762 5.567-2.066 7.233-4.76.368-.596 2.03-.575 2.535-1.84.145-.364 1.07-7.397.993-7.781-.405-2.023-3.756-2.056.236-3.123l-1.987-4.505 5.981 2.998c-.524-4.633-2.064-6.019 2.999-7.998-1.55 4.606 4.792 7.891 7.88 5.865.335-.22 3-6.736 3.145-7.355.746-3.2-2.77.533-3.01-1.006l2.985-4.504-3.992-.997 3.013-.513-2.011-3.48c8.23.218 1.72-2.057 1.963-3.512.447-2.688 3.726-5.022 5.028-1.982.888 2.072-2.83.814-1.983 2.968 1.239 2.111 5.578-.036 3.994 5.86-.233.867-1.775.602-1.88.748-1.698 2.344 4.098 2.32 3.887 5.398-1.61 1.07-5.146-3.463-5.51-3.471-.538-.013-2.068 2.155-1.494 2.962.136.191 3.042 1.106 4.24 2.002.972.728 1.516 2.828 2.298 3.012 1.19.282 3.409-2.826 5.457-1.985-3.369 3.044-.042 3.777-.019 4.49.056 1.717-5.064.391-3.976 3.494l6.994.015c-.57 3.212-9.908 2.172-8.995 5.476.343 1.24 4.738.95 5.478 5.053.134.743-.774 2.225-.485 2.457.48.384 10.035-1.511 12.005 1.02.095.122-.982 2.772-1.101 2.87-.207.168-5.074.08-5.338.038-5.16-.827-14.143-9.678-14.568.073 4.769-2.155 6.943 3.86 7.503 4.027 3.634 1.085 2.906-1.996.506-3.528 2.57-1.974 3.07 2.844 4.296 4.205 1.081 1.2 4.524 2.118 4.692 2.319 1.68 2.006-2.935 2.57-2.973 3.48-.088 2.094 6.26.216 4.98 3.496-4.483-.784-4.002.366-5.912 2.331-2.772 2.853-1.213-.963-2.015-1.797-2.222-2.31-5.983-2.577-2.928 1.658 3.094 4.289 5.483.714 8.376-.194.317-.1 1.217 3.74 5.476 2.002l-.448-4.102 4.441-11.889c.887 5.793-1.686 11.488.002 16.999-3.426-3.284-3.348 6.003-1.94 6.992.527.37 10.83-1.025 12.897-.059-.594-2.547 2.972-4.082 3.024-6.495.02-.894-2.438.266-1.967-1.43 8.553-.466 1.453-6.662 1.333-8.515-.09-1.395 4.626-8.582 4.156-11.492 3.6 6.461.56 14.275 5.513 20.517-2.96-.708-1.145 6.98-.816 7.343.295.324 1.798-.049 2.42.466 4.89 4.04 1.986 3.496 2.803 6.7 1.82 7.134 11.976 9.345 11.394 3.45-.144-1.46-5.85-2.803-3.799-5.48.402-.525 7.982 6.326 5.996-5.995 3.774-.826 1.767 5.162.99 6.989 2.924.86 4.493 1.925 5.02-1.99 1.63-.05.711 3.909 2.5.996 2.566-4.18-3.457-5.123-5.51-7.506 1.867-.476 4.7.8 5.774-1.727 2.776-6.527-12.605-2.718-12.773-8.274 2.719-2.346 13.056 2.46 13.967-1.064.487-1.885-2.133-4.555-4.295-4.158-1.36.25-1.996 2.815-3.757.245-1.171-1.71.047-4.47-.916-6.512 3.94 1.88 2.954-.834 4.299-1.74.887-.599 2.487-.101 2.701-.274.325-.262-2.925-4.09-2-4.985 1.903-1.842 2.898 1.804 3.985 1.989-1.563-4.227-.034-6.066 1.02-9.989 2.252.25 1.2 3.636 1.618 5.007.437 1.436 3.71 2.267 1.36 5.475-.121.885 1.926.588 2.012.512-.062.001-.116.793-.812.93-2.153.426-4.872-1.15-4.195 2.065 6.816-.583 7.33 8.334 15 8.001l-2.983-6.995c1.63.814 8.78 9.752 9.985 4.455 1.256-5.525-13.344-8.504-16.995-8.456.176-.157.437-2.914 1.49-2.982 1.489-.095 12.45 7.029 14.362.28 2.18-7.698-10.655-3.135-13.85-6.312-.445-.442-.393-2.601 1.419-1.921 1.48.555 1.609 3.24 3.56.435-.966-.576-4.377-5.104-3.98-5.49 1.95-1.9 2.007 2.222 2.494 1.987l2.508-2.988c-4.219.983-2.91-3.237-5.002-6l5.994.98c.43-1.639-1.743-.459-2.014-1.637-.298-1.298.16-2.955.029-4.351 7.294 2.613 3.752.504 4.4-2.014.372-1.451 1.975-2.982 3.122-3.965 1.617-.655 3.429 4.064 4.011 4.032 1.775-.096 6.798-5.984 7.453-2.538.582 3.07-7.81 4.23-4.501 8.48.862-.726 4.442-5.178 5.5-3.99 2.345 2.63-4.351 3.478-5.485 6.493-1.962 5.216 2.46 7.549 2.47 8.001.064 2.665-5.927-1.25-5.96 3.002 4.735 4.752 8.766-2.948 13.98-1.511l-3.997-2.496c-.216-.797 3.145.19.99-2.486 3.144-.628 3.128.919 4.507 3.002 1.021-.046-.348-3.844 2.488-3.028 1.11-.918-3.469-1.619-3.68-3.48-.239-2.107 2.579-3.684 2.57-3.934-.063-1.765-2.175-5.401-.383-7.564 4.313 3.885 4.129 7.77 4.174 13.368.004.415-2.526 3.56.5 5.431 2.944 1.82 2.82-3.351 4.817-1.801.607.47-.004 6.892 6.523 6.933 2.668.017 4.44-3.594 7.486-2.93.887 3.415-1.716 4.022-2.678 5.358-.227.314-.915 5.62-2.328 1.92-.286-.75.348-4.36-2.994-2.276-.318.198.148 6.305 1.686 6.815 1.357.45 16.667 1.744 7.607 4.985-3.848 1.376-3.222-1.894-3.796-1.847-3.48.289-.38 1.366-6.208.27-9.575-1.799-1.201 6.627 1.71 10.274-1.12 1.771-2.251-.626-2.989-1.013-5.132-2.693 2.865 8.12 4.516 8.487 3.983.885-1.777-4.514-.511-5.979 1.052.828 6.58 4.484 6.99 5.023.447.592-2.616 2.035-1.902 3.888.34.879 8.691 6.928 10.904 4.08 1.917-2.118-7.774-7.67-6.999-11.465.425-2.079 7.196-.938 7.993-1.531 2.335-1.738-2.608-1.787-1.99-2.984 3.095-.298 10.165-3.683 5.346-6.864l-8.347-6.142c4.896-.14 9.481.152 13.989 1.99l-6.983-5.974c2.553.635 1.666-2.81 2.495-3.068 2.836-.883 4.139.244 3.497 3.05 4.08.276 1.61-4.21 2.993-6.996-2.756.004-4.228 4.16-5.994.005 7.975-.575 3.796-8.207 5.364-13.073 2.368-7.347 4.905 5.576 4.64 8.484-.062.685-1.972.48-2.024 1.153-.153 1.981 1.126 6.517.023 9.42 3.489 1.188.705-4.005 3.48-2.986 2.08.765 4.32 6.324.994 6.03-1.444-.127-3.5-1.728-4.474-.545 3.458 5.537 7.118 8.306 13.995 7.515-.35 2.241-3.227 1.324-4.12 2.648-.608.9-.067 3.514-.575 5.062-.546 1.664-4.96 11.709-4.313 12.277 5.434-1.027 3.266 1.457 4.92 3.558 1.659 2.107 9.244 3.646 12.089 3.45 2.76 2.172-8.271 4.973-9.503 1.014-4.091 5.305 5.204 7.076 8.497 9.486-9.028 2.756-2.285 6.163 2.4 5.27 2.4-.457 2.094-4.68 3.608-3.285 2.446 1.517.787 8.232 2.007 9.512 1.767 1.852 1.375.703 1.604-1.052.08-.609-.187-8.61 2.384-5.94.15.154-.79 1.456-.472 2.872.143.638 1.346 1.449 1.47 2.654.242 2.365-2.625 5.296.508 7.46l.504-3.995c2.938 2.688 4.83-2.056 5.628-4.99.349-1.283-1.119-4.803.861-4.989 4.708-.44 1.418 7.114 1.49 8.399.018.332 1.608-.195 2.032 3.835.175 1.652 4.794 1.567 1.981-2.246l4.005-.014c1.251-3.73-2.714.49-1.985-2.469.461-1.867 2.124-6.493 3.97-7.526.098 2.813-.182 5.646.057 8.466.194 2.283 2.932 2.424-.056 6.008l3 .525c-.708 2.792-1.796 4.542 1.005 6.506-7.362.419.992 5.523 2 4.488-1.104-2.986.073-7.246.946-10.492.308-1.145.413-3.055 2.043-1.498.969.927 1.285 7.77.986 9.473-.14.8-3.841 5.865-.487 4.514 3.1-1.25 1.566-4.276 1.983-5.065.544-1.031 4.485.618 3.392-3.27-.393-1.395-2.916-2.233-2.88-4.135.03-1.54 3.31-4.634 2.035-7.525 2.838 2.952 4.13-6.764 4.014-8.408-.073-1.053-3.092-.993-3.018-2.568 2.494.244 2.454-4.34 4.98-5.015l2.001 18.005-1.984-1.017c.456 2.864.141 18.105 3.437 18.747.473.092 9.152-1.461 9.457-1.834.54-.658-.234-3.832.14-5.354.384-1.553 1.646-2.636 1.913-4.096.404-2.206.543-13.19 2.064-14.455.266-.22 2.159.129 2.977-.006-.402 6.194-.465 11.506 6.998 12.008 1.865-2.504-1.178-7.6-.967-7.96.053-.091 1.466.162 1.992-.713.843-1.404 1.368-7.176 3.466-6.32 4.159 1.698-2.623 6.743-1.48 7.985 1.291 1.403 6.969-8.407 6.972-3.502.002 3.793-4.931 4.708-5.56 5.445-.557.654.879 2.987.662 4.448-.072.485-4.08 1.022-2.073 2.61.332.263 7.464 1.024 7.991-.5.125-.361-5.22-.887.997-2.49 2.471 4.905-3.034 3.142-2.989 6.989 3.056.899 5.987-2.61 6.495 1.017 2.441-2.768-.087-7.645 1.462-10.353.666-1.165 2.42-.155 3.071-1.31.628-1.113.673-3.905.978-5.347l2.98 7.998-3.984-.506c1.256 1.274 2.954 4.924 4.487 4.52 1.028-.272-.3-3.014 2.497-1.007l.02-7.006c2.425 2.642 4.764 1.447 7.303 2.028.858.196.766 3.091 3.682 1.977-1.453-5.107 1.583-4.61 2.478-5.986 1.326-2.038-.826-5.397 2.012-5.01 3.562 2.133 2.726 5.607 4.534 8.983l3.97-4.991c.653 3.876 2.165 7.211-.967 10.504l3.97.497c.77 2.55-2.368 2.436-2.793 3.148-.168.28 1.254 2.844-.699 4.924-1.55 1.65-4.405-2.377-3.493 2.932l1.985-1.013c-.61 5.104.384 4.111 5.003 4.001l-1.002-3.987c5.68 2.123 2.115-9.018 3.516-9.017 1.387.002 2.172 1.014 3.483 1.022.43 1.65-1.736.437-2.026 1.63-.58 2.384.567 5.063 1.046 7.35l2.483-3.988c.487 2.6 4.999 6.29 5.5 7.5.292.702-3.62.903-3.005 2.986l3.007-.483c-4.257 4.404 1.026 9.988-.236 14.502-.155.554-1.642.111-1.824 1.928-.57 5.709 3.744.14 4.053.563 1.634 2.245-3.683 3.841-1.985 5.994 1.538 1.952 4.932-5.308 5.227-6.01 1.777-4.22 3.174-9.384 2.771-13.99 4.255-1.182 3.484 3.56 4.003 7.01 3.355.796 1.274-2.426 2.456-4.055.704-.97 4.958-.723 4.61-4.352-.078-.83-3.837-1.644-3.064-2.581.103-.125 1.71.332 1.933-.643.108-.472-.736-1.515-.367-2.385.82-1.934 3.082-3.463 2.437-6.987 2.79-.336 3.085 16.715 4.979 13.998l1.51-9.01c1.866 2.78 2.741 5.728.49 8.484.983 2.346 4.653 1.119 5.585-.468.802-1.364-.698-2.976-.611-4.343.032-.504 4.866-3.585 5.025-4.215.34-1.346-4.66-4.771.002-6.448l2.003 1.996c-1.468-4.436 2.143-4.809 2.568-7.923.188-1.382-.711-3.475-.456-3.903.312-.521 4.475-1.849 4.765-2.317.11-.18-1.845-4.662 1.22-1.23 4.538 5.084.75 8.057.934 9.89.13 1.299 3.191 1.19 3.764 1.65.18.143-.497 1.385-.134 1.81.83.974 2.622 1.188 2.363 3.017 4.314-1.37 3.117-10.497 3.425-11.014.693-1.163 4.032-1.36 4.536-.95.534.437-1.288 3.868 2.016 2.969.106-1.402-1.68-4.17.52-4.985 3.493-1.295.15 7.575.494 7.99 6.453-.545 2.133-4.495 5.969-7.001.111 4 2.889 1.801 3.014 2.002.743 1.186-1.421 7.4 2.508 8.98l-.5-3.97c1.78-.531 2.254 1.364 3.753 1.759 1.058.278 2.394-.567 3.295-.21 1.449.577 2.87 4.286 5.95 3.451-6.898 5.455-.914 4.334 3.512 7.984 1.235 2.42-5.99.822-6.304.681-.327-.147-.518-1.673-1.227-2.085-3.416-1.984-4.648.661-4.978-5.582l4.991.004c-1.638-.136-4.991-2.197-6.46-1.805-.166.044-2.57 2.128-2.562 2.3.09 2.083 2.414 2.487 2.853 4.199.375 1.46-1.126 4.257.204 6.286 3.07-1.812 6.474 2.17 7.467-1.989 2.96 1.05 2.544 7.122 1.419 8.918-.102.163-1.941-1.027-2.424.073l.52 3.005c1.004-1.827 5.63-2.865 5.858-3.116 1.173-1.297-1.503-7.293-.863-7.878 1.617-1.48 4.066.839 3.004 3.002 3.869-1.284 5.382-3.79 5.76-7.793.13-1.375-.893-3.093-.775-3.208.428-.415 3.943-.042 4.592-.379 1.16-.6 1.134-2.143 1.628-2.476.55-.371 3.205 1.457 3.774-.679.966-3.634-2.582-4.831-3.987-7.462l4.994 1.985c.345-3.435-2.83-5.718 1.98-5.57 4.124.127.704 5.058.963 6.961.091.669 2.04.561 2.126 1.225.243 1.879-2.963 5.918 1.038 6.001.634.014 2.354-1.126 2.877-.607.173.172-.141 2.042.564 2.903.934 1.14 2.993 1.518 3.373 2.742 1.124 3.62-5.22 4.898-1.92 6.855l3.993-2.5c1.802 8.85 4.199 3.045 4.646 2.948 5.247-1.144 12.929 9.046 17.367 5.038 1.896-1.713-2.036-2.113-2.03-2.488.053-3.305 4.528-3.917 7.036-3.506 1.043-3.834-2.849-2.999-4.006-5.99l4.993-.512c-5.424-1.912-8.022-2.896-6.984-9.495 1.238 1.935 7.515 2.774 7.83 3.165 1.094 1.352-1.164 6.124 5.154 4.83.368-3.837-9.988-7.824-9.976-8.496 3.933-2.61 3.032-6.3 2.987-10.494 1.526-1.916 3.651 4.068 3.765 4.72 1.172 6.714-2.523 11.17 7.224 7.271-.435 4.213.763 5.44 5.011 5.009l-4.005 3.984 5.51 2.001c1.756-2.525.23-11.662-3.518-9.997 1.874-2.228.142-4.133.16-5.537.005-.329 4.09-3.64 4.837-4.456l-.988 4.991c.635.525 6.939-3.282 2.001 1.514 5.508 1.863-.966 3.124-.983 3.994-.055 2.835 5.759 1.256 5.975 1.506.333.383-.88 2.298-.71 3.362.1.625 3.818 8.169.228 6.625-1.227-.528-2.932-4.53-5.506-2.499 1.88 6.382 5.754 4.614 8.41 6.412.612.415.589 4.243 3.088 4.077 1.445-.096 1.428-5.92 4.494-4.972-.77 1.77-.32 3.503.257 5.235.922 2.767 2.352 2.611 2.68 3.513.332.916 1.233 6.778 1.186 7.787-.086 1.827-1.808 1.404-1.896 1.624-.265.664.792 1.581.763 2.22-.039.876-2.523-.081-2.01 3.04.642 3.917 3.532 2.62 4.067 3.106 1.073.975 1.444 4.819.95 5.46-1.72 2.227-2.115-3.08-2.983-1.988-2.988 3.757.612 4.545 3.987 5.503 2.076-1.263-.467-3.071.15-4.325.1-.201 1.45-.241 1.888-.896 1.509-2.258-1.95-6.028 1.957-5.284-.49 6.816-.15 4.057 4.999 5.008.406 1.667-1.67.339-2.002 1.714-.232.957.362 2.647-.103 3.2-.405.482-2.631-.164-2.889.076-.466.433 2.631 11.728 2.988 12.323 1.952 3.252 4.226-.997 2.009-4.321.955-.806 3.842 2.427 3.085-4.574-.175-1.615-6.188-3.577 1.914-3.441l-1.992-1.486c10.1-6.745.9-7.202 0-10.01 3.362-.882.847-1.756 1.037-2.945.691-4.316 4.522 3.24 5.477 3.445 3.26.7 3.4-6.402 2.404-7.933-.08-.123-1 .501-1.395.419-1.773-.374-2.03-2.815-1.516-3.48.427-.553 10.956 7.242 12.985 2.495.333-.78-4.75-1.189-5.541-2.447-.989-1.57-.085-3.706-.477-5.357-.295-1.243-4.19-5.241-4.682-5.988-.292-.444-3.59-7.397-3.297-7.696l3.992-1.012c-.26 3.198 1.984 6.057 3.584 8.975.71 1.296-.332 2.579 2.42 2.025.608-3.876-3.568-6.156-4.012-9.486-.252-1.884.676-2.067 2.035-1.027.657 3.662 6.173 8.74 6.798 11.296.584 2.383-1.876 4.85 2.174 6.22.567-4.727 5.803-12.433-1.99-11.005.625-2.357 1.088-3.485.552-6.025-.662-3.137-2.11-.655-3.028-1.897-4.976-6.731 3.198-3.722 3.47-4.073 2.805-3.614-4.747-1.951-2.342-5.007.084-.107 1.246.015 1.373-.482.441-1.718-3.134-4.53-3.024-7.5 3.418-2.785 6.628 10.683 9.997 7.983l-.995-2.984c7.737 2.748 1.382-1.562 1.997-1.998 4.2.4 5.55-.757 4.992-5.016l-1.983 1.01c.117-2.06-1.398-4.542-1.052-6.49.18-1.015 2.08-.07 2.822-.728.446-.396.069-1.855.52-2.43 2.326-2.96 3.498-1.229 1.706-7.35.876-.99 7.158 6.013 7.644 6.043 1.134.068 2.941-1.162 3.252-.966.258.163 3.44 4.674 3.57 4.95.867 1.842.03 4.722 2.045 5.957 2.29 1.404.34-3.12 1.985-2.97 1.762 2.216 3.168 5.136 6.496 4.973-.776-1.1.136-4.763-.05-4.924-.832-.719-5.584-.446-4.714-4.8.924-4.623 2.348 1.822 3.013 2.488 2.334 2.337 8.889 4.01 9.604 4.431.413.243.857 2.992 3.399 4.068 2.146.91 4.24.375 6.03.966 1.235.407 4.273 4.258 5.717 2.773 2.585-2.66-5.061-5.346-6.276-6.013-.634-.348-.698-1.705-.925-1.81-.942-.434-3.693 1.619-5.816-.64-1.706-1.814-.446-4.273-1.137-5.372-.329-.523-2.412-.552-3.23-1.277-2.939-2.607-6.666-5.527-5.601-9.883 2.72-.237 7.109 5.276 8.475 4.995.815-.168 2.06-1.791 1.044-3.047-.72-.89-2.85-.375-2.522-1.935 6.565-4.644 4.602 1.299 8.512 1.99.301.054 3.803-3.73 1.782-5.003-.961-.605-2.92-.836-4.554-1.978-.955-.668-1.208-2.607-2.38-2.908-1.59-.409-4.654 1.325-7.367-1.13 4.517-3.635-1.903-2.905.004-4.97 3.136-3.395 6.389 1.981 8.56 1.971.665-.003.063-2.296.93-1.982 2.929 1.062.476 5.105 4.333 6.878 4.871 2.24 6.718-1.008 6.183-5.876 2.123-.06-.387 2.021 2.48 2 1.152-.008-1.903-2.725 1.5-2.016.246-1.91-3.613-.567-3.777-2.443-.017-.197.584-4.008 1.774-3.538.553 3.038 4.408 4.638 6.001 6.715 2.994 3.904 1.21 9.315 10.008 6.274l1.995 1.997-1.99 3.998 6.994.003c1.022-4.138-6.687-10.322-6.611-12.463.08-2.273 2.744-5.25 5.128-5.522 1.043-.119-.05 2.177.655 2.823.553.507 2.04-.045 2.67.28.26.134-1.725 4.613 3.157 1.394-3.431-2.588-.17-8.092-5.993-7.517 4.706-3.258 5.85-7.898-.991-3.99l.98-8-2.98 2.994c-.471-3.269-2.393-3.853-2.016-7.984 8.634-1.58 4.07 2.564 9.002 6.495l-1.989 1.482c5.507 1.563 8.438 2.682 6.948-4.257-.468-2.181-8.34-2.816-.47-6.72l2.502 4.982c.402-2.009 1.99-3.198 2.064-5.444.02-.634-3.85-13.668-.061-9.55.762.829.09 5.149.329 5.794.072.195 2.769 1.728 3.257 2.604.939 1.685 4.659 12.386 7.42 9.61.427-.43.772-10.336.007-12 10.881 3.428-2.534-4.508 6.996-4.997-.817 1.526-1.275 7.874-.537 9.033.81 1.273 2.845-.605 4.016.908 1.063 1.374 2.569 9.003 4.022 9.03 3.16-2.128-.814-7.171 4.495-5.97.541 1.706-2.513.537-1.992 1.486.597 1.086 2.744 1.31 2.907 1.603.147.263-1.574 3.04 1.585 4.898.694-.304 3.16-6.805 3.15-7.51-.019-1.231-1.711-2.5-1.7-3.965.004-.497 1.905-.429 2.082-1.177.463-1.962-1.323-5.986-1.024-6.338 1.705-2.002 2.056 1.662 2.172 1.739 3.486 2.299 6.699-5.402-1.167-2.748 2.935-3.614-1.26-8.567-.975-8.953.063-.085 1.332.128 1.635-.382.574-.967.19-2.382.39-2.624.164-.202 4.376 1.23 4.982-.615-.546-5.57-4.932-2.556-8.03-4.939l3.99-1.495c-1.395-2.2-3.49-3.794-.5-5.97.4 2.411 6.488 5.043 6.483 5.478-.003.262-2.123 1.53-1.918 2.876.232 1.525 7.172 5.72 7.658 6.882.584 1.397.06 3.405.282 3.753.097.153 2.513-1.723 3.529-.056 1.05 1.721 1.236 5.798-1.523 5.062-1.107.941 9.11 5.953 9.984 4.99.31-.342-.308-2.625.007-3.018.258-.322 3.012 1.642 3.994-.492.139-.303-4.879.072-2.986-4.495.418-.44 8.516 7.42 9.986 5.994.358-.347-.69-2.708-.57-3.536.152-1.061 1.872-1.804 1.524-2.406-.101-.176-2.85.449-1.98-2.55.146-.501 4.592-1.75 3.04-5.502 3.109 1.132 4.769 8.832 6.99 4.022-1.548-.21-3-.605-3.02-2.516-.045-4.602 9.657-.093 12.01 1.494-1.724-4.633.42-3.29 2.009-6.991-.63-.528-3.562 1.425-3.984.997-.17-.173-1.647-4.3-1.64-4.541.062-2.002 3.86-2.203-3.37-4.96 1.307-4.031 2.186-1.135 3.95-1.972 1.45-.688 3.023-3.505 4.55-4.528l1.484 2.99 2.01-5.985c-8.23 3.29-8.346-3.744-6.986-10.002 1.655-.434.43 1.773 1.624 2.025 1.571.33 3.816-.605 5.166.194 1.3.769 1.772 4.526 7.192 2.768l.486-3.98c4.85 1.399 2.746 4.567 5.507 6.984.95-4.411-.558-9.96-2.422-14.062-.7-1.543-5.663-9.53-5.575-3.937-2.91.03-.776-4.204.22-4.784 1.199-.7 3.302.079 3.79-.225.45-.281-2.151-8.965-2.03-10.416.053-.633 1.9-.435 1.98-1.218.31-3.072-1.963-3.65 4.047-2.337l.997 1.975c-.359-1.733.542-5.854-.003-6.994-.068-.142-2.708 1.545-2.992-.991 2.04.165 4.905-.616 6.376-1.977.806-.745-.866-3.953 3.624-3.023-1.576 3.167-3.296 10.362 1.678 10.835 1.423.136 3.292-3.26 4.312-.335 1.653 4.739-4.444 1.032-4.983 1.494-1.902 1.63 1.874 2.075 1.964 2.616.09.54-.578 1.564-.412 2.493.518 2.885 1.704 4.45.45 7.887l3.984-1.999c2.572 8.534-2.639 4.695-2.97 4.999-.221.204-1.226 5.08-.544 6.012l7.53-2.021-.502-2.998c6.734.105 5.213 8.877 11.488 1.502-3.508-.178-3.519-2.418-3.992-5.488 4.944-1.065 4.177 5.886 8.992 4.988 1.079-2.632-2.036-1.719-2.05-2.554-.017-1.01 1.891-4.659 1.061-5.436-.145-.136-2.572.17-3.93-.551-1.529-.812-7.289-4.893-5.58-6.45 2.511 3.706 5.276-.36 7.484-2.504-5.748-3.654-16.69-3.087-13.985-11.494l-5.01.48 1.018-7.494c5.44-.868 1.312 2.112 1.985 2.995.108.141 2.297.386 3.36 1.139 3.212 2.275 5.267 6.78 5.643-.125l-2.984 1.008c.247-3.618-2.726-6.842-5.997-8.028 1.719-4.204 5.386.285 8 .51-2.42-3.193-3.039-4.61-4.408-8.184-.14-.362-1.528-.345-1.503-.748.08-1.237 1.743-3.537 1.519-5.1-.213-1.484-3.124-2.518-3.394-4.07-.187-1.077.819-2.574.757-3.885-.136-2.915-1.283-5.223.029-8.505 4.507 1.29 7.68 3.165 11.985-.504-1.948-2.44-6.01.529-6.987-2.478 3.601.34 3.263-7.092 5.497-8.013.164 1.455 2.357 3.09 3.49 1.998.486-.468-1.012-11.281 2.505-12.982l4.493 6.487-2.984-.506c-1.306 5.971 4.228 1.126 6.023 2.405 2.022 1.44 3.045 11.308 5.493 13.658 1.876 1.801 5.629-2.065 3.484 4.935l2.983-.996c.23.262-.955 6.607-1.208 6.845-.607.572-2.246-.455-2.821.803-1.53 3.34 1.38 7.587.965 8.251-.363.58-3.719.478-2.923 3.093 5.915-.111 8.473-6.876 8.005-11.99l1.98 2.99c-.763-2.42 1.122-11.617 3.242-6.733 3.488 8.037.518 7.343.707 13.298.065 2.048 2.624 4.595 2.034 5.398-.159.216-2.01.234-2.53 1-1.23 1.816 1.012 4.124.475 4.905-.998 1.452-5.821.543.066 3.637l-1.987 3.496 2.995 2.001c-3.07-.412-8.958-1.303-5.973 2.486l-2.03.027c2.164 2.98 7.472 9.107 7.059 12.853-.062.56-1.687.538-2.235 2.02-.358.967-.134 8.31-1.818 5.98-.282-.39-.235-3.51-1.992-1.356-.389.477 1.018 2.529 1.005 3.408-.006.376-5.641 3.886-1.01 5.08l-1.998 2.495c6.562.558 2.911-.93 3.111-2.5.25-1.97 8.102-.095 9.89-1.5.2-.157-1.705-3.581-1.011-4.99l-2.98 2 .999-8.007c1.648 2.59 5.334-4.02 4.793-4.848-.142-.218-1.743-.17-1.83-.636-.384-2.069 6.33-9.033 8.02-7.512.151.136.499 3.183.574 4.023-1.744 2.487-7.466-1.042-6.561 2.975l4.99.01c-.218 3.653-3.363 4.916.51 7.992 2.218-3.998 3.901-2.795 3.4 1.436-.674 5.707-3.952 3.239-5.754 4.7-.127.103.597 1.33.212 1.848-.375.504-3.976 3.948-4.057 4.23-.08.271-.367 5.41-.211 5.645.303.458 2.825.784 2.89 1.64.021.29-3.275 3.23-1.975 5.5 3.848-3.218 2.927-6.182.994-9.99 1.357.504 5.642-1.335 5.991-1.01.517.483-1.335 3.883 2.002 2.997-.32-1.319-1.757-4.385.513-4.983 5.769-1.52 3.006 11.434 3.527 11.899.41.367 2.699-.036 3.558 1.045.437.55-.479 5.599.411 7.041 2.007 2.01 6.915-9.232 7-10.994 4.293-.064 2.845 5.055 2.986 8.005l-1.984-1.012c-1.775 6.644.575 4.448 1.985 6.024 1.174 1.312-3.811 2.988-2.003 5.982-2.391-2.26-4.64-1.838-6.97.5 2.141 2.199 5.867 1.224 4.975 5.495-.41.402-9.638-1.643-10-2.001-.107-.105-.11-2.885-.003-2.99.353-.35 3.664.34 4.016 0 1.075-1.04-1.766-12.485-3.022-14.307-1.44-2.089-5.548 3.254-4.999 5.288l-4.983-1c-.91-3.835 2.713.565 2-2.475-.213-.913-2.89-.616-2.999-.51-.92.893 1.74 9.655 1.72 11.723-.011 1.23-1.134 1.94-1.349 2.949-.202.947.587 2.152.424 2.736-.507 1.814-4.768 1.787-4.784 3.088-.002.135.893 2.413.987 2.51.186.19 4.883-.907 5.233-1.032 1.375-.49 1.216-2.668 2.756-3.466 1.43-.742 7.38-2.393 6.02.483 1.77.506.446-2.335 1.483-1.988 2.62.88.602 4.422.514 5.995 2.197-.132 1.7-3.673 2.042-3.96.998-.834 5.11 1.169 5.94 2.475l-3.98.48c-3.854 6.459 3.977 7.088 3.994 9.52.004.611-7.25 4.385-2.993 10.484 4.157-5.764 2.662-.876 4.088-.09.25.139 2.732-1.34 4.888 1.112.458 1.644-1.758.575-2.014 1.472-1.22 4.278 4.965.29 3.042 6.801-.341 1.155-3.654 1.707-3.003 2.692 2.965-.611 1.313 5.16 3.976 6.01-.204-3.088.876-4.217 4.01-4.005-2.036-2.032-3.448-2.836-4.006-5.974 3.104-.184 7.036-2.64 7.723-5.736.103-.466.413-4.99.226-5.169-.455-.434-4.37-.294-4.714-2.597-.442-2.959 4.858-3.272 4.795-4.034-.117-1.4-1.497-2.114-1.776-3.252-.302-1.228.815-2.696-.12-3.788-2.097-2.447-8.723-2.721-10.127-6.43 4.673 1.124 8.615.949 10.269-4.338 1.203-3.849-1.65-3.82-2.276-6.19-.162-.611 1.71-.268 1.955-1.108.614-2.1-2.394-7.506 1.042-8.373-.378 1.915 1.309 4.213 3 4.995 1.666-4.053-1.884-5.11-1.871-5.433.04-1.019 1.564-3.235.87-4.564-.093-.179-2.5 1.279-4.012-.441-1.142-1.3-.6-2.826-1.089-3.77-.47-.905-1.497-.75-1.64-1.298-.21-.802.482-4.062-.239-5.489l5.986 1.995-3.985-12.99c1.363-.436 1.95 3.898 2.977 2.986.524-.464-1.389-3.022 3.006-.994l-1.993-5.987 6.995 1.985-2.005-13.99-1.98 1.99c-.335-2.262.496-5.239-.022-7.322-.193-.779-1.996-.65-2.056-1.285-.32-3.405 1.361-1.08-.598-4.65-2.07-3.776 1.622-5.282 3.235-2.742.932 1.468-2.143 3.394.92 3.01l2.5-4.005 2 3.997c2.323-4.377-.62-3.829-.777-4.482-.24-1.001.482-4.896-.205-6.513 1.418.58 4.3.505 5.32.967.988.449 2.078 8.316 2.779 8.915.735.629 3.79-.245 5.258.085 1.16.26-.017 2.46 1.627 2.024l.02-12.994 2.978 1.999c2.115-4.525-.916-2.5-1.986-4.504-.133-.249 3.538-.987 2.004-4.512l9.996-.99c.193-7.375-5.495-11.774-9.262-17.24-1.453-2.107-1.185-4.31-3.75-5.261l2.001-.483-.48-4.022c3.028-1.333 8.288 5.725 10.483 4.008 2.002-1.567-1.557-2.08-1.626-2.197-.255-.44.365-1.4.037-1.813-.763-.963-2.278-.857-2.407-1.008-.312-.365 2.592-2.981 2.741-4.603.128-1.394-1.04-2.86-.73-4.374 3.208 2.224 3.52 4.647 7.986 3.005-3.078 5.855 3.278 11.672 9.011 8.986-.73-1.623-1.508-3.6-.915-5.378.518-1.555 4.496-1.492 2.9-3.594-1.02-1.344-8.896-4.59-9.992-7.01l9.99-.01c.5-2.112-2.038-2.571-2.026-4.493.004-.64 1.998-.366 2.102-1.114.437-3.156-2.587-8.518 1.912-11.9l-10.968-6.977c1.372-2.874 8.267.051 9.98-4.03l-6.99-1.495c.157-2.133 5.79-3.71 5.994-4.008 1.227-1.793-4.512-4.867-5.986-4.995-.037-2.212 3.868-.23 4.873-1.112.168-.148 1.136-3.888 1.15-4.333.03-.928-4.876-.362-4.026-3.537 4.71-.83 4.164 3.047 8.655 3.834 4.906.859-1.397-6.26-1.6-6.62-1.87-3.336-2.25-5.568-6.058-8.208 4.81-2.06 4.842 2.166 8.506 3.963l-1.503-2.47c3.081-3.745 2.993.37 4.726 1.524 2.76 1.838 6.7 2.508 9.26 4.971-2.449-4.742-2.24-9.021-4.002-13.993l-.998 1.995c-2.38.008-2.412-6.567-1.986-7.002 1.323-1.352 7.2 2.4 8.909 2.546 1.487.128 3.22-1.942 5.085-1.556-8.704-8.146-1.529-4.79-1.107-5.104.283-.211.296-1.83 1.09-2.377 1.744-1.199 4.728.828 4.01-2.508-5.04 3.431-5.98-3.242-7.107-3.957-.619-.393-2.362 1.11-2.766.835-.267-.182-.327-1.772-1.134-2.314-.661-.444-10.627-2.155-7.978-4.561.516-.47 12.71 1.255 13.86 1.633 2.846.936 3.589 4.143 7.124 4.367 1.54-7.147-1.011-3.6-2.946-4.47-1.265-.568-2.742-3.1-4.04-4.048-.82-3.707 7.909-.721 6.951-5.902-.424-2.295-8.12-.372-8.57-6.086-.22-2.792 2.324-2.505 3.875-3.498.615-.394.682-1.578 1.004-1.73 1.66-.787 6.101.648 3.513-4.057-.671-1.22-7.946-2.088-3.785-5.616 1.008-.854 3.989 1.516 2.017-4.596l4.985 5.994c-1.112-4.441-1.039-4.921 1.043-8.221.725-1.15 2.566-1.108 2.959-.767.671.584-3.22 5.783.997 5.005.484 1.929-2.21-.011-1.99 1.98 5.536.339-1.058 3.198-.98 3.491.106.408 1.994 5.158 2.21 5.35.649.573 2.516-.038 2.768.173.273.229-1.71 5.489-.991 6.99 2.095.226.46-3.475.984-4.004.272-.277 3.904.192 5.001.013.867 5.154-4.61 3.656-5.99 7.502.113.852 7.657-.17 4.991 2.48-.717.712-5.005.076-4.99 2 3.675 1.905 4.698-.464 7.598-1.895 1.281-.633 3.857-.894 4.255-1.219.302-.246-.73-4.723 5.135-3.867.85 3.247-2.18 1.368-2.822 2.109-.472.545-.171 3.106-.945 4.6-1.409 2.721-3.723 5.096-5.221 7.792 9.107.254-1.311 4.855-.997 8.492l3.985-.503c.042 2.095-5.04 1.097-3.985 2.99 1.704 3.056 7.314.956 5.995-2.486 2.62.128 3.406 3.067 6.482.99 2.39 2.137-1.554 1.867-1.502 2.607.296 4.206-1.74 5.552-3.513 9.458-.6 1.319.644 2.823.54 2.93-.294.301-6.741.751-7.011 4.006 1.878-.51 5.833.075 7.307-.882 2.192-1.424.629-4.284 1.166-5.15.598-.964 2.02 0 2.31-.263.627-.57.786-2.079 1.66-2.716 1.963-1.429 4.429-2.048 6.061-3.974 2.083 2.936-3.255 4.772-2.01 7 1.157 2.068 2.08-.37 2.743-1.268 1.151-1.557 1.812-3.987 3.752-4.737-.966 3.784-1.087 5.724 2.464 8.047 5.976 3.91 4.47-7.562 9.543-8.04-2.345 3.12 1.013 6.089.836 7.296-.138.934-1.907 1.993-1.95 4.198-.051 2.564 2.251 3.202 2.107 5.497-7.76-1.548 2.973 11.8 7.01 10.011l-4.995 2.486 5.992 2.516-4.997 2.998c1.094 2.34 7.185 3.798 2.003 5.486.62 1.161 2.868 1.393 2.98 1.563.881 1.326-4.352 3.504-2.973 4.94 1.984-1.416 4.491-.543 6.27-1.04.994-.277 1.176-3.54 4.743-2.54 6.184 1.734.311 3.31.205 4.01-.697 4.59 2.65 3.307 5.767 2.581-.387 2.99-5.539 2.283-5.99 3.496 2.597-.039 3.343 3.883 4.091 4.428 1.046.763 4.945-2.608 7.233-2.644 1.023-.016 5.35 2.335 5.611 2.76 1.457 2.37-2.69 2.035-2.938 3.939l7.008 1.512-4.007 1.514 4.003 3.496-3.996.49c-.837 4.42 1.33 2.248 2.652 3.28.725.565.947 1.897 1.948 2.573 1.974 1.333 4.736 1.67 6.386 3.651-2.72.619-3.075 3.184-4.328 4.234-1.39 1.164-3.707-1.367-2.669 5.262 1.73-.107 3.646.302 5.33-.019.717-.136.921-3.218 3.67-1.971-4.452 6.029.876 6.609 1.094 7.645.411 1.961-1.937 3.78-.1 4.873.54.32 1.977-.611 2.98-.028 1.038.605 1.011 2.614 4.34 3.763 1.645.569 3.387-.17 3.535-.073.36.233.63 2.093 1.595 2.833 5.026 3.858 8.293 1.61 14.047 2.989 2.455-5.524-4.028-3.047-4.55-3.434-1.024-.758-.7-3.198-1.55-4.514-2.763-4.276-9.1-8.006-14.385-6.074l2.99-3.981-4.994-1.02 2.993-2.978-5.994-1.02c-.889-3.314 2.594-1.5 3-1.994 2.404-2.93-3.382-3.196-3.996-4.502l2.988-2.477c-6.387-1.744-1.722-4.608-1.992-4.996-.223-.32-3.889-.36-2.99-3.021 2.019 1.92 5.623-.566 6.841.108.461.255 2.174 5.206 3.138 6.405 1.285 1.598 3.965 2.557 4.495 3.502.76 1.356.55 8.565 4.515 5.975.81-.529-2.16-9.022-3.998-9.98 2.12.084 4.271-.878 5-3.001-3.303-.194-10.795-1.921-8.003-6.002l-3.99.997c.366-1.49-1.12-3.405-1.069-4.445.053-1.103 2.517.152 2.055-1.549-2.993-.551-9.341-1.581-9.035-5.394.042-.517 1.368-.579 1.649-1.031.557-.9.057-2.269 1.038-2.616.668-.236 8.042-1.251 8.35-.964-1.377 4.004-4.121 7.74 2.003 7.985-1.724-3.173-.362-3.962 3-4.002l-1.994-3.984 4.995 1.985c-1.478-1.444-.717-6.777-.995-6.995-.47-.37-3.214.56-3.905-.141-.325-.33.204-1.899-.358-2.588-.911-1.115-8.712-2.402-5.624-6.152.198-.24 5.604-2.299 5.845-2.103.692.559.362 4.351 5.036 2.98l.486-2.981c3.867 3.547-2.498 4.154-2.495 4.49 3.855 1.618 6.044-.702 5.503-4.493.671 1.084 2.817.594 3.325 1.208.718.869-.706 3.11 1.17 2.778 2.892-6.984-5.209-5.433-6.758-7.23-1.412-1.64-.712-6.227-1.233-8.09-.299-1.067-1.877-.571-1.978-.687-1.88-2.135 2.52-3.198 3.72.654.048.155-1.59 4.974 1.25 2.356 1.152-1.06-.413-6.804-1.229-7.759-1.523-1.785-5.679.82-5.77-2.727-.032-1.276 9.331.12 7.001-4.51-3.29 2.4-6.232-.7-5.983-3.998l2.983.997c-3.766-7.49-.112-5.334.916-7.097.222-.38-.918-1.615-.9-2.297.02-.817 1.513-.49 1.754-1.097 2.126-5.357-4.186-1.648-2.77-6.504l4.016-.012-.996-1.964 3.48-1.04 2.498 3.007c2.204-2.812-.978-5.19-.973-5.5.014-.827 2.617-1.232 2.878-1.607.307-.442-1.93-3.178-.401-3.881 2.054 2.18 3.923 1.79 6.503.998l-.994 2.986 4.993-.986c.578.544-2.245 5.035-2.573 5.07-2.728.293-3.778-4.583-6.424-3.065-.171.098-.127 3.796.009 3.94.462.487 5.942 1.063 7.281.868 2.508-.364 2.965-2.978 5.23-3.821 2.306 1.89 2.651 4.61 4.074 6.965.484.801 6.715 3.96-.586 4.048l1.99 1.98-4.99.02c-.173 1.72 2.465 1.301 3.417 1.94 2.972 1.993-1.57 1.981-2.328 2.597-.678.55-3.313 4.283-3.095 4.443 2.427 1.776 3.447-3.882 5.994-1.497-2.874 3.359-3.334 2.77-1.989 7.502-.543.538-4.93-1.22-3.995 1.49.987 2.858 2.828-.181 3.474-.144.821.047 2.482 2.324 3.474 1.634.562-.39 1.905-5.36 6.037-3.97 1.478 3.24-1.983 4.312-1.997 4.592-.035.721 1.151 2.163 1.01 2.396-.652 1.085-5.602-1.114-2.997 5.006 2.476-.23.848-2.922.99-2.992.16-.08 3.408.247 3.561.34 1.917 1.156 1.126 3.253 1.49 3.637.15.159 3.274-1.968 3.905.605.076.312-.773 6.133-1.005 6.356-.985.947-5.51-.768-6.961-.436 1.067 4.136 2.766 3.01 5.583 2.591 4.425-.657-1.481 7.519-2.791 8.62-.308.259-1.912-1.871-2.783 2.27 3.971-.113 6.303-2.525 7.805 2.533-2.123.9-5.825 6.54-6.737 6.972-1.24.587-3.983-1.473-5.063 0 2.1 2.461 8.449 1.034 11.265.276 1.407-.38 2.109-2.21 3.19-2.386 2.999-.487 3.183 2.819 3.015-1.4-.239-6 6.527-1.744 1.526 3.005 2.77-.834 5.629-.988 5.819 2.688.06 1.172-1.389 2.058-1.39 2.845-.003.822 1.947 3.27.561 5.48l-3.985-.998 3.992 4.983-11.884 2.107c-2.193 1.808 2.091 7.387 2.87 6.898.09-.056-.26-1.338.712-1.994 1.248-.843 12.263-6.755 12.988-6.873 1.642-.266 3.116 2.463 4.312 3.379-2.685.787-3.545.068-3.003 3.502l-4.993-.997c3.776 4.31-.835 8.1-4.99 3.99-.687 4.174.833 2.277 2.61 3.368.42.258.419 1.622.97 1.638 1.238.038 2.675-1.44 4.694-.882 1.648.455 2.854 3.8 5.711 2.865l-1.78-1.481.798-1.5c-2.315.564-4.13-.696-3.54-3.104.94-3.824 5.043-2.388 6.104-3.844.247-.339-1.615-5.719 1.908-5.055 1.043.196 1.628 3.64 1.463 4.334-.081.343-3.61 1.824-1.94 3.657.397.437 3.519-1.468 3.986-.993.39 2.017-1.846 2.66-2.028 4.541-.091.948 1.856 6.22 2.132 6.414.285.2 3.848-1.376 6.24.182 2.147 1.399 1.262 3.058 1.783 3.737.118.154 1.31-.495 1.956-.283 2.237.732 3.303 2.96 3.596-1.277.322-4.665-3.696-2.162-3.653-3.817.062-2.374 7.602-.3 8.98-.49.091 1.614-2.895 1.858-3.001 2.01-.246.357 4.043 5.693 3.012 7.974 2.328-.592-.621-4.225 3.497-3.017.377.11 1.09 3.584 6.487 1.028.26 3.264-2.286 2.682-4.325 3.017-2.372.389 2.125 5.704 2.46 5.823.656.23 2.488-1.276 2.866-.853.185.208-.295 1.573.047 2.193.692 1.256 1.872.75 1.938.832 2.172 2.748-3.232 1.12-2.973 2.97 1.486.235 8.03.53 7.973 2.513-.022.777-2.007 1.075-2.335 1.39-3.282 3.143 4.983 3.364 5.405 3.668.753.545.786 2.572 1.436 2.45 3.457-.653 3.239-5.301 2.51-8.01l-5.991.992c.804-2.119 4.959-1.783 2.3-5.075-2.51-3.108-.683-1.134-1.537-3.658-.54-1.596-7.512-4.116-8.764-5.762 2.616-2.644 8.636 2.512 9.502 2.48 3.353-.124.636-6.244-1.53-7.502-1.189-.69-2.799.64-2.923.502-.2-.222.075-1.99-.6-2.933-.67-.936-3.063-.597-2.444-2.527.663-2.07 1.484-.96 2.504-.555 3.435 1.363 11.25 6.378 10.517 10.392-.07.385-5.443 4.288-3.025 6.643 2.986 2.91 3.217-3.938 3.907-5.583 1.872-4.468 2.748.42 7.091-.404l-1.001 2.984c3.069-.348 5.45.392 7.987 2.007 1.85-2.648-3.005-6.417-4.982-4.997 2.848-7.28-1.648-4.84-3.02-6.015-.23-.198 2.09-4.596 1.007-5.982-1.796-2.299-1.752 2.599-2.985 1.99-.3-13.353-2.895-3.12-4.51-3.015-2.495-1.231-.15-3.049-.604-3.77-.445-.705-4.157-1.62-4.89-2.703 2.725-6.628 10.173-4.875 10.915-5.636.396-.405-.17-2.078.176-2.734.069-.131 3.087.85 2.884-.638-.115-.848-2.585-1.179-2.873-1.659-.682-1.133 1.811-3.798-.623-4.83-2.295-.974-.314 6.061-3.475 5.984.457-1.886.677-7.635 1.95-8.585.724-.54 7.107 1.69 7.849-2.023.253-1.266-2.72-4.33 2.97-1.697 1.154.533 1.22 1.93 1.417 2.024.216.104 4.637.463 4.797.284.462-.514.006-2.927-.978-3.551-1.201-.763-4.438 2.294-4.006-.932l2.496-2.51.99 1.992c5.483-4.386 2.017-3.047.515-7.996 2.182 1.392 3.452 1.88 5.988 1.007-1.614 2.561-.578 4.338-.004 6.989-6.44-2.75-1.496 3.307 2.451 3.068.549-.033.608-2.04 1.064-2.111 2.201-.342 6.494 4.565 10.509 3.53 1.686 1.417-1.659 2.6-.007 5.516l2.975-2.998c1.504 4.897 2.768 10.319 2.069 15.561-.47 3.525-3.831 4.494-3.082 7.801.067.295 2.842.827 1.975 5.01-.11.527-3.929 1.112-1.943 2.622.231.175 2.805.54 3.003-.73.23-1.477.535-4.12 2.992-2.256.36.273-2.845 6.525 1.99 7.99-1.729-2.081.914-7.681 3.004-5.988.343.279-.775 2.413.996 1.984-1.129-5.252 2.848-1.62 3.002-1.997.733-1.796-3.795-4.477 3.001-5.001.34 4.587 2.729 9.366 8.007 8.993-2.356-2.309-1.06-4.258-2.004-6.982 1.231-.242 5.699.317 6.01.001.64-.649-1.57-4.98 1.99-4.003l-.513 3.996 3.507 1.483-2.708 2.324-6.272.676c1.32 2.138 3.12.138 4.94.977 4.661 2.15-2.449 4.9-.948 6.53 1.894-.106 3.764 1.023 5.568 1.097 1.639.067 1.86-4.349 3.963-1.107 1.39 2.141-.471 4.89-2.53 5.512 3.334 1.606 4.318-.053 5.997 4.496-5.616-.86-3.875 1.304-3.99 6.005 1.554.41.618-1.187 1.33-1.654 4.547-2.981 4.447-3.617 5.951-8.149.15-.454 4.3-2.622 4.204-4.189 3.28 2.43-.763 2.22-1.275 3.189-.166.314.68 1.102.465 1.578-.118.26-1.668.204-1.713.8-.09 1.219 1.655 3.62 1.018 5.425-1.221.612-1.207-4.301-2.984-1.99-.813 1.057 1.348 7.54 2.015 7.995.532.364 2.29-1.773 3.485-1.682 1.058.081 1.694 2.289 3.489 1.677.062-3.262-1.902-4.832-4.998-5.006-.616-4.27 3.584-2.963 4.023-5.978 1.81-1.01 3.11 8.748 2.986 9.993 1.564 1.903 1.555.509 1.703-1.262.063-.758.323-3.949.288-4.154-.051-.304-4.229-1.177-.481-2.58 1.9-.71 1.347 2.049 2.033 2.053 3.526.023 2.078-2.832 5.951 2.919.458.008 2.442-6.009 2.387-6.343-.495-3.004-7.595-1.986-6.69-8.916.618-4.726 3.641-2.485 3.794-2.72 1.594-2.442-3.993-1.26-.992-4.992-3.37-.882-4.724 8.043-5.519 8.013-.642-.024-6.256-2.117-6.362-2.593-.222-.99.743-9.298-.123-10.43-2.878-.664-2.648 2.16-1.998 3.992-2.277.08-7.16-1.667-5.002-3.984.33-.356 7.91-.805 9.495-2.018-.59 4.839 1.293.46 3.498-.008.42-1.707-1.199-.394-1.976-1.438 1-5.175 8.336-5.734 4.005-9.043 1.422-2.167 1.917-.916 3.98-.508-.142-4.74-3.429-3.639-3.852-4.076-.522-.539.1-3.67-.36-5.192-.555-1.831-2.466-4.031-2.579-5.393-.153-1.837 1.863-3.132 1.85-4.785-.004-.478-1.62-.41-1.981-1.302-1.007-2.491.032-5.079-3.718-6.598l-3.348-5.645 2.983.996-.982-5.991c3.362 1.864 1.311 6.443 5.988 3.984l-.498-4.97c4.113 5.051 9.27 15.008 13.487 4.467-4.02-2.264-2.102 3.787-4.968.015 1.99-1.666 3.042-3.675.477-5.498l-3.492 2.99v-5.987c1.052-.863 9.206 4.262 5.985-4.005L3188.01 173c-1.122-7.472 1.653-3.816 4.025-5.445 3.952-2.713-2.243-6.027-3.006-8.097-.708-1.922 3.944-1.412 1.962-3.457-.253-.261-2.143 1.152-3.335 1.06-.167-.014-2.49-2.025-2.539-2.185-.266-.875 2.85-3.79 1.885-4.873-.45-.507-3.885 1.33-2.997-1.998 4.938-.631 6.164 1.69 3.996 5.985l2.495-2.986c3.728 2.284 3.439 8.23 5.012 8.988 3.471 1.67 2.245-2.767 2.5-2.999l2.984 1.004c.196-3.903-2.992-2.33-.998-6.993l-4.994.986c.998-4.15 4.8-1.74 4.993-1.985 1.157-1.479-3.498-9.302-1.997-12.01-4.293 2.385-4.913-2.937-4-6.348.28-1.047 2.416-.334 2.001-1.143-.13-.253-3.768-3.894-4.014-4.038-1.105-.645-2.417.538-2.82.317-.362-.198-2.35-4.252-5.17-4.294-.756-2.443 5.572-1.665 6.349-1.483.984.231-.142 3.08 3.653.986.04 6.693 2.2 1.19 4.123-.425.684-.575 2.398-.381 2.704-.722.374-.416.305-3.7.174-3.841-.36-.39-3.946 1.167-5.379.094-.926-.694-.425-2.264-.905-2.744-.988-.984-7.755-4.414-3.207-6.35.28-.12 3.742 5.767 4.488.014-4.871-.902-2.227-5.45-7.988-3.023-.77-1.702 2.45-3.375 1.996-3.977-.48-.635-6.08-3.07-6.001-7.008 8.618 1.307 16.476 14.082 19-1l-8 2.98c6.214-6.664 2.524-3.838 1.135-6.164-.816-1.367.118-9.337 5.27-2.842.666.84-2.084 2.726 2.59 2.01l-2.995-4.984c6.382-1.518 4.768 3.105 8.515 6.975 1.242 1.282 9.212 7.16 10.48 6.01.412-2.314-2.093-2.719-2.682-4.638-.486-1.585.283-6.487.684-8.35-3.18-1.096-2.195 4.406-3.01 5-3.929-.821-5.898-.3-4.995-5.014l-1.984 1.019c.659-5.499-7.629-4.752-7.019-10.006-1.859-.39-.045 2.837-2.479 2.001-1.053-.362-.303-2.162-.516-3.012L3195.01 75c1.646-6.271.386-2.787-1.684-4.26-.81-.577-1.196-2.574-2.312-3.257-.219-2.59.402-1.017 1.757-.758 3.806.73 7.32 4.064 10.567 3.283.776-.186.302-3.178 3.977-1.845 2.157.783 2.129 3.14 3.373 3.901 3.933 2.41 8.62 2.124 8.303-3.063l-4.984 1.005c.438-4.907-1.612-6.552-4.443-9.625-3.292-3.574-5.477-4.305-9.264-6.662-4.33-2.695-4.319-9.969-4.289-14.713l2.163 9.322 1.325 1.655c2.2-4.692 9.427 2.076 8.508-3.477-.213-1.285-1.998.63-3.051-.002-1.115-.67-1.748-4.608-5.946-2.506l1.997-6.984-5.005-1.024c1.882-4.894 15.289 2.654 16 2-2.234-2.604.172-4.767-4.002-3.992.067-8.173 6.551 1.395 8.99 2.003.194-1.113-.62-5.662-1.05-5.949-.126-.083-1.435.83-2.214.586-1.831-.572-3.324-2.196-5.72-1.647 1.667-4.332 9.195 1.925 6.514-3.973l-4.514.978c-1.576-7.123 3.79-1.316 4-5.99l-4.003-.013 1.01-2.984-3.005-.995c8.247-.594 3.16-3.617 4.073-4.874.119-.163 3.24-2.06 3.427-2.135.377-.15 2.781 5.392 6.494 4.007l-4 1.999 3.952 12.534 6.036 4.451-1.468-15c-2.2-2.743-1.184 1.454-2.016 1.002-3.487-1.897.135-4.816.143-6.5.012-2.573-4.393-8.595 3.348-7.506-.68 9.472 3.686-.605 4.999 1.014-1.581 6.775 2.987 3.93 5 8.502l-3 .497 2.005 3.986-4.001.015c-.734 2.868 2.13 1.412 2.58 3.922.275 1.538-.376 2.636-.577 4.066 3.372.558 4.105-1.607 5.493-3.989l6.5 7.5c-1.713.673-3.439-.332-5.529-.05-1.347.182-2.632 1.626-3.95 1.609-.818-.011-.142-2.363-1.011-2.06-2.699.941-.825 6.161 4.04 5.867 4.092-.248 6.13-5.098 9.45 1.635-3.056 1.044-4.673-.803-3.998 3.498L3242.01 38c-1.762 8.815 3.817 1.839 4.92 5.619.861 2.954-2.421 5.408-1.927 8.376l11.362-1.076 2.642 8.073-3.01.012c-1.239 1.185 4.52 5.334-3.997 4.006.808 4.478 6.688 5.203 6.004-.011 2.888.213 2.514 2.384 5.788 1.392 3.76-1.14 3.43-6.554 9.162-.898-2.759 1.373-1.413 5.411-1.972 6.508-.19.372-6.908-1.18-3.985 3.992-8.07-1.888-3.576-.462-4.526 2.05-.428 1.131-2.747 1.67-2.466 3.442.35 2.213 3.847.329 3.99.512 1.375 1.779-4.471 7.222 3.558 6.885 2.106-.089 3.528-2.465 5.45-1.388 2.469 2.61-2.878 2.367-3.006 2.516-.563.655.556 2.65 1.606 2.882 1.906.423 4.887-2.527 5.887-2.507.285.005 5.234 1.483 5.435 1.684.882.879.673 6.786-2.925 4.94.287 2.542 2.925.85 2.991.992 2.254 4.814-5.09 1.187-4.986 5.994 6.179-1.827 3.771-.32 6.056 1.446 1.01.779 2.91.164 2.96 1.077.079 1.405-1.637 4.134-1.993 5.755l-7.018 6.212c2.77 3.208 1.277.244 2.75-.412 1.905-.848 7.533-2.468 8.933-3.397 1.48-.982 6.062-8.817 8.302-6.671 1.277 1.224-5.712 7.819.005 10.985-3.477-.336-5.256.243-5.014 4.027-7.001-1.927 1.995 3.816 2.56 5.023.422.896-.386 3.825-.554 3.954-1.235.944-3.518-2.41-3.983-1.995-.371.33.82 2.388-1 1.996l-3-5.994c1.316 2.509.396 8.477 1.436 10.05 1.504 2.272 5.201-.175 5.478.055.436.362-.683 2.29 1.067 1.889-.53-7.336.252-4 4.32-5.01.314-.078 1.612-3.62 4.693-1.976.166.09-.06 3.62-.168 3.776-.38.556-4.534 1.556-2.818 4.18.96 1.469 11.89 1.898 7.991 8.033 3.203-5.118 12.103 5.937 13.987 3.997-.485-2.315.765-9.493-.131-10.864-.332-.507-2.353-.449-3.147-1.064-.84-.653-.986-1.991-1.752-2.487-1.292-.835-3.75-.453-4.54-1.518-.403-.545.601-2.263.336-3.305-.677-2.654-3.434-6.28-2.808-9.126.21-.954 3.168.215 1.05-3.625l4.992.989c1.175-1.106-4.637-5.108-.505-4.989 1.219 3.655 5.89 3.744 7.611 6.459.539.85-.632 7.223 1.889 4.536.372-.396 1.117-6.004.817-7.239-.822-3.38-5.55-9.444-8.326-11.778-.945-.795-2.404-.893-2.481-1.002-.237-.332 4.369-3.692-.98-6.482 4.247-4.415 5.336 6.475 7.979 4.49l.486-2.98c2.046 1.439 1.544 3.894 1.524 5.99 3.59-2.708 4.014 2.975 7.982 4l-1.002-9.005c-1.642 2.503-6.742-5.571-7.002-7.496-.293-2.162 1.904-1.945 3.359-1.484.56.177 1.879 4.956 4.653.008-3.743-2.192-7.524-4.132-3.992-8.015L3326 83c-.882-5.493 1.58-.607 3.982-3.498-.674-2.005-4.34-2.182-4.766-2.712-.54-.671-.13-2.592-.718-3.75-.863-1.7-3.522-2.152-4.584-3.5-.91-1.154.003-2.926-.556-4.246-.848-2.002-3.818-1.572-3.351-4.287 4.416-.687 7.28 4.325 11.73 2.354.25-.11 4.074-3.207 4.236-3.427.198-.27-4.356-7.528-.485-5.924 5.073 2.103 5.37 10.238 4.518 14.986L3341 67.99l-1.991-6.986 2.983.997c.717-6.885-1.43-2.353-2.815-3.097-1.096-3.035-5.057-5.146-6.84-7.243-.946-1.113-1.798-3.907-3.42-5.848-2.067-2.473-4.38-3.472-6.907-5.325l3.99-1.496c-1.635-2.55-4.518-4.484-3.994-7.985 6.236-1.566 6.918 2.489 10.5 4.986 1.715 1.196 3.92 1.827 5.788 3.007.814.515.336 1.774 1.217 2.008 1.972.524 1.855-1.482 1.511-2.509-.24-.715-4.815-2.271-6.019-2.51l3.009-2.487-3.009-2.488 8.005-2.02c-2.424-3.568 1.98-2.256 3.448.098.98 1.57-.225 4.36 2.53 2.187.446-.35-.855-2.018 3.008-.28v-2.995c-4.12 2.02-2.42-.391-4.59-1.87-3.782-2.578-7.248-2.005-6.427-8.57.123-.988 3.135-.282 4.627-1.453 1.928-1.514.925-4.053 1.47-5.051.071-.13 2.219 1.201 2.9-.548-1.918-3.087-2.931-7.148-.973-10.51h3zm580.909 39.133c-.543-.48-2.428.046-3.405-.138-2.288 2.095 1.307 1.884 1.347 2.453.082 1.181-1.247 3.457.155 5.558 4.38-3.147 7.26 1.324 7.046 5.435-.027.513-3.832.685-2.048 2.552.473.496 8.454.25 9.996.997-4.688-3.674-6.503-7.556-8.315-13.231-.475-1.49 1.317-4.61-2.475-2.457-.138.078-.528 3.68-2.206 1.699-.25-.294.332-2.49-.095-2.868zm24.086 37.863c-3.067-.49-1.951 3.873-5.99 3.015l2.005 1.489c-5.43-.398-2.128 5.722.001 4.492.197-.114-2.417-2.565.475-1.983 4.843 3.082.922 6.746-3.485 7.002l4.992 6.495c-6.495-1.457-1.423 4.274.829 1.217 1.125-1.527-1.662-3.69 5.173-2.733l-2.992-2.977 3.992-2.518c-6.357-.742-2.684-8.545-5-13.5zm-684.99 47c2.015-2.349-1.902-10.37-3.94-8.917-.156.11.183 1.62-.692 1.876-.828.242-5.137-.921-6.244.243-.436.459.151 2.337-.198 2.682-1.133 1.118-5.964-2.135-3.164 3.854 3.658 7.824 9.075.148 12.762-.718.543-.127 7.099 7.354 1.966 8.98l-2-4.99c.276 3.152-2.182 5.33-5.215 5.821-2.364.383-4.926-6.996-8.27-2.312l2.981.486c-1.731 6.333.194 8.927 7.004 8.009l-1.991 1.485c3.824 4.676 2.618.776 4.688-.55 3.835-2.459 5.426 1.744 3.313-6.94l4.99 4.99c.423-3.638-1.73-6.653-2.55-9.958-.612-2.471 2.305-6.049-3.44-4.041zM3289.01 140c2.891.343 3.398 8.91 4.478 8.971 9.55-3.957 7.455-6.143 3.499-13.963-1.708-.257-1.069 2.386-.977 3.474.209 2.496 1.4 4.917.98 7.518-4.465-1.312-4.505-11.158-8.412-9.926-.761.24-8.445 13.053-7.573 13.921 2.495 2.484 3.62-3.009 3.99-3.44 1.615-1.879 5.095-1.766 4.015-6.555zm17.985 4.005c-4.667 2.052-6.334 4.08-2.985 8.485-5.616-.669-3.56 1.705-2.01 5.5l-2.009-1.99c-5.352 2.816 6.703 6.533-.973 9.991l-3.008-2.99c-.911 3.443 1.348 5.07 1.983 7.996-1.544-.995-5.27.339-5.991-.006-.36-.173 2.118-6.695-3.002-4.981l2 3.98c-.998.98-5.069-5.739-7.938-2.908-.58.573.889 3.254-1.052 2.913l-.505-3.99c-1.516 1.4-.865 6.8-.525 8.35.268 1.222 2.442-.028 2.012 1.632L3280 177.99c4.77.144 9.218-.546 13.263-3.02 3.247-1.985 2.516-.664 3.52-1.166.255-.127.116-1.485.864-1.738.731-.248 4.767.252 5.35 1.44.088.18-3.967 1.662-1.992 3.489 2.437 2.255 9.79-8.285 4.005-8.009-.296-1.405 1.827-1.187 3.072-2.424 1.639-1.627 2.324-3.972 4.922-5.073.19-.748-7.232-9.386-7.831-13.197-.265-1.685 2.441-2.384 1.822-4.287zM3207.978 167c-.435.288-9.517-8.103-7.996-1.497.119.516 7.562 3.373 8.755 5.764.636 1.274.016 3.45.272 3.715.63.656 10.807.493 11.852-1.124.689-1.066-.138-4.308.134-5.853-2.285-.794-6.26 6.775-6.973 5.992-.088-.097-.379-1.329-1.169-2.33-.362-.459-1.505-.543-1.697-.875-.242-.419.866-11.63-3.178-3.792zm89.804 23.777c3.86-2.262.353-8.47-2.287-10.772l-.505 3.99-2.985-2.99-.01 4.99-2.005-3.99-2.5 2.99-2.994-2.99c-.094 6.428-5.253.645-5.486.995-1.282 11.242 4.325 4.771 6.36 5.085.938.144 1.85 2.446 4.143 2.898 1.352.266 7.377.317 8.27-.206zm599.003 26.468c-1.478-1.513-14.036-7.848-15.78-6.24-.021 1.625.768 5.736 1.963 6.582 1.276.903 7.223-1.756 7.012.913-.389 4.913-11.143-2.12-7.234 5.254 1.578 2.976 6.438 3.223 8.76 6.24 1.967-2.125-1.047-1.57-1.681-3.348-.618-1.73-.86-3.8-.82-5.641 3.945.696 6.246 1.815 2.994 4.977l4.996 2.013c.168-1.062-.43-3.368.095-3.951.548-.608 3.579 1.088 2.904-1.533-4.017-1.078-1.863-3.89-3.209-5.266zm-869.772 30.764c-.117-.113-2.027.06-2.942-.538-2.76-1.808-2.391-6.005-8.069-4.463l.997 2.983c-3.758.376-6.574-2.396-8.994 1.514 3.186-.489 4.018 2.096 4.77 2.407 6.176 2.56 7.203-2.912 8.774 6.121l7.442-3.547-3-1.493c-.321-.291 1.479-2.544 1.022-2.984zm183.997 18.99c.302-1.394-1.07-7.975-2.51-7.979-3.071 3.196-2.513 7.948-2.51 11.98-2.363-1.852-3.596-2.977-3.985.995 1.484.827 9.628-1.335 9.991-.99.276.264-.77 1.908-.4 3.016.227.686 2.804 4.387 3.384 3.969.173-.125-.202-2.908 3.003-2.024-1.91-2.782.737-1.664 1.005-1.98.281-.332-5.08-5.865-6.983-3.996-.048-1.522 1.85-1.186 2.903-2.595 1.833-2.454.68-4.216-1.898-5.395l-2 5zm-440.992 128.009c-.227.197-.24 1.946-.962 2.519-2.005 1.592-7.775-6.807-12.051-4.516-.437 1.65 1.817.46 2.056 1.626.37 1.802-.832 3.69-.523 5.487.198 1.155 5.355 12.577 6.039 12.75 3.944 1 4.198-2.654 5.357-4.144.7-.9 2.13-1.07 2.487-1.704.336-.595-.623-1.882-.422-2.017.388-.261 6.645 2.704 9.01.987.887-4.55-1.653-2.201-2.757-3.188-.688-.615-.29-3.076-1.757-3.805-4.268 7.78-3.29-6.752-6.476-3.995zm-1008.865 26.804c-.338-.18-1.293-3.345-2.653-3.792-1.795.017-3.903 9.472-3.547 11.465.24 1.338 4.094-1.033 3.068 3.021-.084.332-3.295.739-2.016 3.489 3.175.854 2.035-2.857 3.13-3.844.203-.182 3.677 1.215 4.698-1.826.157-.465 1.204-7.394 1.123-7.778-.486-2.32-3.567-.607-3.804-.735z"/><path d="M2502.994 381.988c-5.223.546 2.75 8.247 5.99 9.513-2.311 1.297-2.202 3.171-3.006 4.887-.535 1.142-1.654-.75-1.97-.395-2.109 2.37 4.577 2.609 4.99 3.021 1.276 1.278-3.565 3.718-3.507 4.981-2.987.42-.48-2.35-1.063-4.025-.536-1.54-4.31-4.315-4.398-4.683-.725-3.01.055-8.675-.33-10.858-.208-1.171-2.498-1.031-2.759-2.061-1.43-5.652 4.377-4.976 6.053-.38z"/></svg>