<?xml version="1.0" encoding="UTF-8"?>
<svg id="Layer_1" data-name="Layer 1" xmlns="http://www.w3.org/2000/svg" width="40" height="40" viewBox="0 0 40 40">
  <rect width="40" height="40" fill="none"/>
  <path d="M20,3.3333c9.19,0,16.6667,7.4767,16.6667,16.6667s-7.4767,16.6667-16.6667,16.6667S3.3333,29.19,3.3333,20,10.81,3.3333,20,3.3333ZM20,0C8.955,0,0,8.955,0,20s8.955,20,20,20,20-8.955,20-20S31.045,0,20,0Z"/>
  <g>
    <path d="M12.2209,18.6872v.0451c0,.8141.5908,1.5026,1.3932,1.6398,1.6733.286,3.2206,1.0843,4.4444,2.3082,1.2242,1.2242,2.0185,2.7763,2.3024,4.4554.1359.8038.8253,1.3961,1.6405,1.3961h.0596c1.026,0,1.8101-.9211,1.6399-1.9329-.4099-2.436-1.5812-4.6144-3.2577-6.2964-1.6709-1.6764-3.8513-2.8433-6.2885-3.2549-1.0121-.1709-1.9339.6133-1.9339,1.6397Z"/>
    <path d="M14.5643,23.8382c-.6479,0-1.2268.2619-1.6541.6892-.4273.4273-.6892,1.0063-.6892,1.6541,0,.641.2619,1.2199.6892,1.6472.4273.4204,1.0063.6823,1.6541.6823s1.2268-.255,1.6541-.6823.6892-1.0063.6892-1.6472c0-.6479-.2619-1.2268-.6892-1.6541-.4273-.4273-1.0063-.6892-1.6541-.6892Z"/>
    <path d="M24.6889,16.0638c-2.7842-2.7902-6.4917-4.6517-10.6237-5.0811-.982-.102-1.8374.6655-1.8374,1.6528v.0482c0,.8489.6395,1.5638,1.4838,1.6523,6.6805.6996,12.0001,6.0297,12.6984,12.7116.0883.8444.8033,1.4842,1.6523,1.4842h.0549c.9873,0,1.7548-.8554,1.6528-1.8374-.4294-4.1321-2.2909-7.8404-5.0811-10.6306Z"/>
  </g>
</svg>