<?xml version="1.0" encoding="UTF-8"?>
<svg id="Layer_1" data-name="Layer 1" xmlns="http://www.w3.org/2000/svg" width="40" height="40" viewBox="0 0 40 40">
  <rect width="40" height="40" fill="none"/>
  <path d="m20,3.3333c9.19,0,16.6667,7.4767,16.6667,16.6667s-7.4767,16.6667-16.6667,16.6667S3.3333,29.19,3.3333,20,10.81,3.3333,20,3.3333Zm0-3.3333C8.955,0,0,8.955,0,20s8.955,20,20,20,20-8.955,20-20S31.045,0,20,0Zm0,10c-5.5217,0-10,4.4767-10,10,0,4.4183,2.865,8.1667,6.84,9.4883.5.0933.66-.2167.66-.4817v-1.8617c-2.7817.605-3.3617-1.1783-3.3617-1.1783-.4533-1.155-1.11-1.4633-1.11-1.4633-.9067-.6217.0683-.6083.0683-.6083,1.005.07,1.5333,1.0317,1.5333,1.0317.8917,1.5283,2.3383,1.0867,2.91.8317.09-.6467.3483-1.0867.635-1.3367-2.2217-.2533-4.555-1.1117-4.555-4.9417,0-1.0917.39-1.9833,1.03-2.6833-.1033-.255-.4467-1.2733.0967-2.65,0,0,.84-.2683,2.75,1.025.7983-.2217,1.6533-.3317,2.5033-.3367.85.0033,1.705.115,2.505.3367,1.91-1.2933,2.7467-1.025,2.7467-1.025.545,1.3767.2017,2.395.1,2.6467.6417.7,1.0283,1.5917,1.0283,2.6833,0,3.8417-2.34,4.6867-4.5667,4.9333.36.31.6867.9183.6867,1.8517v2.7433c0,.2667.16.5783.6667.48,3.9717-1.3217,6.8333-5.0683,6.8333-9.485,0-5.5233-4.4783-10-10-10Z"/>
</svg>