<?xml version="1.0" encoding="UTF-8"?>
<svg id="Layer_1" data-name="Layer 1" xmlns="http://www.w3.org/2000/svg" width="40" height="40" viewBox="0 0 40 40">
	<rect width="40" height="40" fill="none" />
	<path
		d="m20,3.3333c9.19,0,16.6667,7.4767,16.6667,16.6667s-7.4767,16.6667-16.6667,16.6667S3.3333,29.19,3.3333,20,10.81,3.3333,20,3.3333Zm0-3.3333C8.955,0,0,8.955,0,20s8.955,20,20,20,20-8.955,20-20S31.045,0,20,0Z" />
	<path
		d="m25.3257,19.1872c-.0959-.0459-.1932-.0902-.2919-.1325-.1718-3.1652-1.9013-4.9773-4.8054-4.9959-.0132,0-.0262,0-.0394,0-1.737,0-3.1817.7415-4.0709,2.0907l1.5972,1.0956c.6643-1.0078,1.7067-1.2227,2.4745-1.2227.0089,0,.0178,0,.0265,0,.9562.0061,1.6778.2841,2.1448.8263.3399.3947.5672.9402.6797,1.6286-.8478-.1441-1.7647-.1884-2.7448-.1322-2.7611.159-4.5362,1.7694-4.4169,4.007.0605,1.135.6259,2.1115,1.5921,2.7494.8169.5392,1.869.8029,2.9624.7432,1.444-.0792,2.5768-.6301,3.3671-1.6375.6002-.765.9798-1.7564,1.1474-3.0056.6882.4153,1.1982.9619,1.4799,1.6189.479,1.1168.5069,2.9521-.9906,4.4483-1.312,1.3108-2.8891,1.8778-5.2726,1.8953-2.6439-.0196-4.6435-.8675-5.9435-2.5202-1.2174-1.5476-1.8466-3.7828-1.87-6.6438.0235-2.861.6526-5.0963,1.87-6.6439,1.3001-1.6527,3.2996-2.5006,5.9435-2.5202,2.6631.0198,4.6975.8718,6.0473,2.5324.6619.8144,1.1609,1.8385,1.4898,3.0326l1.8717-.4994c-.3987-1.4698-1.0262-2.7363-1.88-3.7867-1.7305-2.129-4.2613-3.2199-7.5223-3.2426h-.0131c-3.2543.0225-5.7568,1.1176-7.438,3.2548-1.496,1.9018-2.2677,4.548-2.2937,7.8651v.0078s0,.0078,0,.0078c.0259,3.317.7976,5.9634,2.2937,7.8652,1.6812,2.1371,4.1837,3.2323,7.438,3.2547h.0131c2.8933-.0201,4.9326-.7775,6.6127-2.4561,2.1981-2.196,2.1319-4.9486,1.4074-6.6384-.5198-1.2118-1.5107-2.196-2.8657-2.846Zm-4.9955,4.6967c-1.2101.0682-2.4673-.475-2.5293-1.6384-.0459-.8626.6139-1.8252,2.6036-1.9398.2279-.0131.4515-.0196.6711-.0196.7227,0,1.3988.0702,2.0135.2046-.2293,2.8633-1.5741,3.3282-2.7589,3.3933Z" />
</svg>