<?xml version="1.0" encoding="UTF-8"?>
<svg id="Layer_1" data-name="Layer 1" xmlns="http://www.w3.org/2000/svg" width="40" height="40" viewBox="0 0 40 40">
  <rect width="40" height="40" fill="none"/>
  <path d="m20,3.3333c9.19,0,16.6667,7.4767,16.6667,16.6667s-7.4767,16.6667-16.6667,16.6667S3.3333,29.19,3.3333,20,10.81,3.3333,20,3.3333Zm0-3.3333C8.955,0,0,8.955,0,20s8.955,20,20,20,20-8.955,20-20S31.045,0,20,0Zm10.8333,14.63c-.735.3267-1.5267.5467-2.3567.6467.8483-.5083,1.4967-1.3117,1.805-2.27-.7933.47-1.6717.8117-2.6067.995-.7467-.7983-1.815-1.2967-2.9933-1.2967-2.65,0-4.5967,2.4717-3.9983,5.0383-3.4083-.1717-6.4333-1.805-8.4567-4.2867-1.075,1.8433-.5567,4.2567,1.27,5.4783-.6717-.0217-1.3033-.2067-1.8567-.5133-.045,1.9,1.3183,3.6783,3.2917,4.075-.5767.1567-1.21.1933-1.8533.07.5217,1.63,2.04,2.815,3.8333,2.8483-1.7283,1.3533-3.9,1.9583-6.0783,1.7017,1.8167,1.165,3.9717,1.8433,6.2883,1.8433,7.62,0,11.9233-6.435,11.6633-12.2067.8033-.5767,1.4983-1.3,2.0483-2.1233Z"/>
</svg>