<?xml version="1.0" encoding="UTF-8"?>
<svg id="Layer_1" data-name="Layer 1" xmlns="http://www.w3.org/2000/svg" width="40" height="40" viewBox="0 0 40 40">
  <rect width="40" height="40" fill="none"/>
  <path d="m18.9383,3.3333c6.925,0,4.395,10,4.395,10,0,0,10-2.75,10,4.095v19.2383H6.6667V3.3333h12.2717Zm1.3767-3.3333H3.3333v40h33.3333v-23.9767C36.6667,12.0383,25.5867,0,20.315,0Zm8.0183,21.6667h-4.38v6.1433h1.5117v-2.4533h2.4833v-1.22h-2.4833v-1.1633h2.8683v-1.3067Zm-8.1667,0h-2.665v6.1433h2.665c.895,0,1.6017-.3017,2.1033-.8917.925-1.0967.9783-3.39-.1033-4.4867-.4967-.5-1.1867-.765-2-.765Zm-1.1533,1.305h.8267c.7883,0,1.3367.2883,1.525,1.0733.1067.445.1283,1.1317-.035,1.58-.2133.585-.635.88-1.2567.88h-1.0617v-3.5333h.0017Zm-4.5667-1.305h-2.78v6.1433h1.5117v-2.1283h1.2683c1.0317,0,1.7733-.4617,2.04-1.2717.1583-.485.1583-.995,0-1.475-.2667-.8067-1.01-1.2683-2.04-1.2683Zm-1.2683,1.22h.91c.3917,0,.7783.0467.96.38.1117.205.1117.61,0,.815-.1817.3317-.5683.3783-.96.3783h-.91v-1.5733Z"/>
</svg>