<?xml version="1.0" encoding="UTF-8"?>
<svg id="Layer_1" data-name="Layer 1" xmlns="http://www.w3.org/2000/svg" width="40" height="40" viewBox="0 0 40 40">
  <rect width="40" height="40" fill="none"/>
  <path d="M20,3.3333c9.19,0,16.6667,7.4767,16.6667,16.6667s-7.4767,16.6667-16.6667,16.6667S3.3333,29.19,3.3333,20,10.81,3.3333,20,3.3333ZM20,0C8.955,0,0,8.955,0,20s8.955,20,20,20,20-8.955,20-20S31.045,0,20,0Z"/>
  <path d="M14.2839,12.855c2.3245,1.7451,4.8248,5.2834,5.7428,7.1823.918-1.8987,3.4182-5.4372,5.7428-7.1823,1.6772-1.2592,4.3948-2.2335,4.3948.8668,0,.6192-.355,5.2013-.5632,5.9452-.7237,2.5863-3.3609,3.2459-5.7068,2.8467,4.1005.6979,5.1436,3.0095,2.8909,5.3212-4.2784,4.3903-6.1493-1.1015-6.6289-2.5087-.0879-.258-.129-.3787-.1296-.276-.0006-.1026-.0417.0181-.1296.276-.4794,1.4072-2.3503,6.8992-6.6289,2.5087-2.2528-2.3117-1.2097-4.6234,2.8909-5.3212-2.3459.3992-4.9832-.2604-5.7068-2.8467-.2082-.744-.5632-5.3261-.5632-5.9452,0-3.1002,2.7176-2.126,4.3948-.8668h.0001Z"/>
</svg>