<?xml version="1.0" encoding="UTF-8"?>
<svg id="Layer_1" data-name="Layer 1" xmlns="http://www.w3.org/2000/svg" width="40" height="40" viewBox="0 0 40 40">
  <rect width="40" height="40" fill="none"/>
  <path d="m20,3.3333c9.19,0,16.6667,7.4767,16.6667,16.6667s-7.4767,16.6667-16.6667,16.6667S3.3333,29.19,3.3333,20,10.81,3.3333,20,3.3333Zm0-3.3333C8.955,0,0,8.955,0,20s8.955,20,20,20,20-8.955,20-20S31.045,0,20,0Zm-3.3333,13.3333c0,.9283-.745,1.68-1.6667,1.68s-1.6667-.75-1.6667-1.68c0-.9283.745-1.68,1.6667-1.68s1.6667.7533,1.6667,1.68Zm0,3.3333h-3.3333v10h3.3333v-10Zm5,0h-3.3333v10h3.3333v-4.7683c0-2.87,3.3367-3.135,3.3367,0v4.7683h3.33v-5.5983c0-5.4733-5.2133-5.2733-6.6667-2.58,0,0,0-1.8217,0-1.8217Z"/>
</svg>