<svg xmlns="http://www.w3.org/2000/svg" viewBox="0 0 270 270">
	<style>
		.left {
			fill: #0a1c2e;
		}

		@media (prefers-color-scheme: dark) {
			.left {
				fill: #f7fafb;
			}
		}
	</style>
	<path fill="#6a977e"
		d="M138.8099,90.3325c-37.2132,52.9248-11.7982,100.5753,4.6733,122.4705,4.7617-21.6982,11.3559-48.0501,19.5236-71.6039,17.873-51.5683,53.3676-77.8716,53.3676-77.8716,0,0-44.773,44.006-53.7206,163.8219,74.224,12.8709,92.1789-45.862,80.1333-103.046-7.2881-34.4726,27.2129-82.8522,27.2129-82.8522,0,0-91.9954-6.698-131.1901,49.0814h0Z" />
	<path class="left"
		d="M44.9979,110.3026s32.399,11.7088,57.3106,46.2493c.7642,1.064,1.5215,2.1643,2.2858,3.2463-1.7395-14.2105-.8073-29.8673,4.7253-46.367-.1131-.0915-.2151-.1901-.3375-.285C67.2178,80.2332,0,105.785,0,105.785c0,0,36.6054,28.4324,38.8912,55.8018,3.7939,45.4032,30.356,85.2632,82.9254,59.0748-33.5217-87.4845-76.8187-110.359-76.8187-110.359Z" />
</svg>